<svg width="89" height="82" viewBox="0 0 89 82" fill="none" xmlns="http://www.w3.org/2000/svg">
<g filter="url(#filter0_f_32_245)">
<path d="M12 18.7513L18.6174 16.8676L22.1794 27.1559M22.1794 27.1559L29.467 48.2043C30.6921 51.7429 34.5211 53.5462 38.0529 52.2479L71.8969 39.8077C74.9388 38.6896 76.8519 35.584 76.486 32.3582L74.2162 12.3431L22.1794 27.1559Z" stroke="#62FF00" stroke-width="3.42541" stroke-linecap="round" stroke-linejoin="round"/>
<path d="M46.0371 69.3408C47.8645 68.8206 48.9489 66.8252 48.4593 64.8839C47.9696 62.9426 46.0914 61.7905 44.264 62.3107C42.4367 62.8309 41.3522 64.8263 41.8419 66.7676C42.3315 68.7089 44.2098 69.8609 46.0371 69.3408Z" stroke="#62FF00" stroke-width="3.42541" stroke-linecap="round" stroke-linejoin="round"/>
<path d="M72.5069 61.8061C74.3342 61.2859 75.4186 59.2905 74.929 57.3492C74.4394 55.4079 72.5611 54.2559 70.7337 54.776C68.9064 55.2962 67.822 57.2916 68.3116 59.2329C68.8012 61.1742 70.6795 62.3263 72.5069 61.8061Z" stroke="#62FF00" stroke-width="3.42541" stroke-linecap="round" stroke-linejoin="round"/>
</g>
<path d="M12 18.7513L18.6174 16.8676L22.1794 27.1559M22.1794 27.1559L29.467 48.2043C30.6921 51.7429 34.5211 53.5462 38.0529 52.2479L71.8969 39.8077C74.9388 38.6896 76.8519 35.584 76.486 32.3582L74.2162 12.3431L22.1794 27.1559Z" stroke="#62FF00" stroke-width="3.42541" stroke-linecap="round" stroke-linejoin="round"/>
<path d="M46.0371 69.3408C47.8645 68.8206 48.9489 66.8252 48.4593 64.8839C47.9696 62.9426 46.0914 61.7905 44.264 62.3107C42.4367 62.8309 41.3522 64.8263 41.8419 66.7676C42.3315 68.7089 44.2098 69.8609 46.0371 69.3408Z" stroke="#62FF00" stroke-width="3.42541" stroke-linecap="round" stroke-linejoin="round"/>
<path d="M72.5069 61.8061C74.3342 61.2859 75.4186 59.2905 74.929 57.3492C74.4394 55.4079 72.5611 54.2559 70.7337 54.776C68.9064 55.2962 67.822 57.2916 68.3116 59.2329C68.8012 61.1742 70.6795 62.3263 72.5069 61.8061Z" stroke="#62FF00" stroke-width="3.42541" stroke-linecap="round" stroke-linejoin="round"/>
<defs>
<filter id="filter0_f_32_245" x="0.10578" y="0.423529" width="88.3187" height="80.9643" filterUnits="userSpaceOnUse" color-interpolation-filters="sRGB">
<feFlood flood-opacity="0" result="BackgroundImageFix"/>
<feBlend mode="normal" in="SourceGraphic" in2="BackgroundImageFix" result="shape"/>
<feGaussianBlur stdDeviation="5.09701" result="effect1_foregroundBlur_32_245"/>
</filter>
</defs>
</svg>
