<svg width="93" height="93" viewBox="0 0 93 93" fill="none" xmlns="http://www.w3.org/2000/svg">
<path d="M46.5 81.0833C65.5998 81.0833 81.0833 65.5998 81.0833 46.5C81.0833 27.4001 65.5998 11.9166 46.5 11.9166C27.4001 11.9166 11.9166 27.4001 11.9166 46.5C11.9166 65.5998 27.4001 81.0833 46.5 81.0833Z" stroke="#62FF00" stroke-width="3.31709" stroke-linecap="round" stroke-linejoin="round"/>
<path d="M11.9166 46.5H81.0833" stroke="#62FF00" stroke-width="3.31709" stroke-linecap="round" stroke-linejoin="round"/>
<path d="M46.5 11.9166C55.1502 21.3868 60.0661 33.6766 60.3333 46.5C60.0661 59.3233 55.1502 71.6132 46.5 81.0833C37.8497 71.6132 32.9338 59.3233 32.6666 46.5C32.9338 33.6766 37.8497 21.3868 46.5 11.9166V11.9166Z" stroke="#62FF00" stroke-width="3.31709" stroke-linecap="round" stroke-linejoin="round"/>
<g filter="url(#filter0_f_300_217)">
<path d="M46.5 81.0833C65.5998 81.0833 81.0833 65.5998 81.0833 46.5C81.0833 27.4001 65.5998 11.9166 46.5 11.9166C27.4001 11.9166 11.9166 27.4001 11.9166 46.5C11.9166 65.5998 27.4001 81.0833 46.5 81.0833Z" stroke="#62FF00" stroke-width="3.31709" stroke-linecap="round" stroke-linejoin="round"/>
<path d="M11.9166 46.5H81.0833" stroke="#62FF00" stroke-width="3.31709" stroke-linecap="round" stroke-linejoin="round"/>
<path d="M46.5 11.9166C55.1502 21.3868 60.0661 33.6766 60.3333 46.5C60.0661 59.3233 55.1502 71.6132 46.5 81.0833C37.8497 71.6132 32.9338 59.3233 32.6666 46.5C32.9338 33.6766 37.8497 21.3868 46.5 11.9166V11.9166Z" stroke="#62FF00" stroke-width="3.31709" stroke-linecap="round" stroke-linejoin="round"/>
</g>
<defs>
<filter id="filter0_f_300_217" x="-5.19403" y="-5.19403" width="103.388" height="103.388" filterUnits="userSpaceOnUse" color-interpolation-filters="sRGB">
<feFlood flood-opacity="0" result="BackgroundImageFix"/>
<feBlend mode="normal" in="SourceGraphic" in2="BackgroundImageFix" result="shape"/>
<feGaussianBlur stdDeviation="5.09701" result="effect1_foregroundBlur_300_217"/>
</filter>
</defs>
</svg>
