<svg width="62" height="14" viewBox="0 0 62 14" fill="none" xmlns="http://www.w3.org/2000/svg">
<path fill-rule="evenodd" clip-rule="evenodd" d="M54.7343 3.60872C55.7385 3.66448 56.464 4.38999 56.5759 5.33851C56.6317 5.84101 56.6317 6.62227 56.6317 7.12444C56.6317 7.73837 56.6317 8.24084 56.5759 8.74286C56.4083 9.9149 55.5713 10.5848 54.7343 10.5848H54.0645H53.2832C52.502 10.5848 51.6088 9.9149 51.4416 8.74286C51.3855 8.24084 51.3855 7.73837 51.3855 7.18037C51.3855 6.62227 51.3855 5.84101 51.4416 5.33851C51.5531 4.38999 52.3344 3.66448 53.339 3.60872C53.562 3.55297 53.7296 3.55297 54.0084 3.55297L54.7343 3.60872ZM54.176 0.371804C55.2364 0.371804 56.241 0.42756 57.0781 0.539064C59.4222 0.818191 61.3196 2.65984 61.7102 4.94788C61.766 5.33851 61.8775 6.23167 61.8775 7.12444C61.8775 8.07329 61.766 8.96605 61.7102 9.30101C61.3196 11.6451 59.4222 13.4309 57.0781 13.7658C56.241 13.8216 55.2364 13.9332 54.176 13.9332H53.8411C52.725 13.9332 51.7765 13.8216 50.8833 13.7658C48.5392 13.4309 46.6979 11.6451 46.3069 9.30101C46.2512 8.96605 46.1396 8.07329 46.1396 7.12444C46.1396 6.23167 46.2512 5.33851 46.3069 4.94788C46.6979 2.65984 48.5392 0.818191 50.8833 0.539064C51.7765 0.42756 52.725 0.371804 53.7854 0.371804H54.176Z" fill="#515D73"/>
<path fill-rule="evenodd" clip-rule="evenodd" d="M34.0288 7.12444C34.0288 6.39893 34.0849 5.67339 34.2522 4.94788C34.6428 2.65984 36.4845 0.818191 38.8286 0.539064C39.6656 0.42756 40.6703 0.371804 41.7307 0.371804C42.9025 0.371804 43.9629 0.42756 44.8557 0.539064C45.1906 0.594816 45.414 0.873939 45.414 1.20882V3.21809C45.414 3.60872 45.1348 3.88785 44.8 3.88785C44.8 3.88785 43.7396 3.83173 43.1817 3.83173C42.5119 3.83173 41.9537 3.83173 41.34 3.88785C40.3354 3.9436 39.6099 4.66875 39.4984 5.61763C39.4423 6.11995 39.3865 6.62227 39.3865 7.12444V7.18037C39.3865 7.68273 39.4423 8.1849 39.4984 8.68707C39.6099 9.63592 40.2796 10.3614 41.34 10.473C41.8979 10.529 42.5677 10.5848 43.1817 10.5848C43.7396 10.5848 44.8 10.529 44.8 10.529C45.1348 10.529 45.414 10.808 45.414 11.1986V13.2077C45.414 13.5425 45.1906 13.8216 44.8557 13.8774C43.9629 13.8774 42.9025 13.9332 41.7307 13.9332C40.6703 13.9332 39.6656 13.8216 38.8286 13.7658C36.4845 13.4309 34.6428 11.6451 34.2522 9.30101C34.0849 8.63129 34.0288 7.90592 34.0288 7.18037C34.0288 4.89212 34.0288 9.41273 34.0288 7.12444Z" fill="#515D73"/>
<path fill-rule="evenodd" clip-rule="evenodd" d="M32.5222 10.4172C32.9128 10.4172 33.1919 10.7519 33.1919 11.0869V13.0959C33.1919 13.4866 32.9128 13.7657 32.5222 13.7657H24.5417C23.0906 13.7657 21.9187 12.5939 21.9187 11.1427V3.21801C21.9187 1.76699 23.0906 0.594731 24.5417 0.594731H32.5222C32.9128 0.594731 33.1919 0.873857 33.1919 1.20874V3.1619C33.1919 3.55289 32.9128 3.83165 32.5222 3.83165H27.6111C27.2204 3.83165 26.9414 4.05503 26.9414 4.44566V5.6733L31.1271 5.61755C31.4619 5.61755 31.7967 5.95243 31.7967 6.28738V7.96178C31.7967 8.35223 31.4619 8.63121 31.1271 8.63121H26.9414V9.74746C26.9414 10.138 27.2204 10.4172 27.6111 10.4172H32.5222Z" fill="#515D73"/>
<path fill-rule="evenodd" clip-rule="evenodd" d="M12.2079 13.7657C11.0359 13.7657 10.0314 12.9843 9.69644 11.924L6.96191 1.37636C6.96191 1.32024 6.96191 1.26449 6.96191 1.20874C6.96191 0.873857 7.24093 0.594731 7.63164 0.594731H11.7056C12.0405 0.594731 12.3195 0.818107 12.3752 1.09687L14.4959 9.91482C14.4959 10.0266 14.6077 10.138 14.7752 10.138C14.8867 10.138 14.9982 10.0266 14.9982 9.91482L17.1748 1.09687C17.2306 0.818107 17.5097 0.594731 17.7887 0.594731H20.0768C20.4676 0.594731 20.7466 0.873857 20.7466 1.20874C20.7466 1.26449 20.7466 1.32024 20.7466 1.37636L18.1237 11.7008C17.8445 12.8728 16.8958 13.7657 15.5564 13.7657H12.2079Z" fill="#515D73"/>
<path fill-rule="evenodd" clip-rule="evenodd" d="M0.990132 0.594487H4.95267C5.34337 0.594487 5.62235 0.873612 5.62235 1.20849V13.0956C5.62235 13.4864 5.34337 13.7655 4.95267 13.7655H0.990132C0.655362 13.7655 0.320557 13.4864 0.320557 13.0956V1.20849C0.320557 0.873612 0.655362 0.594487 0.990132 0.594487Z" fill="#515D73"/>
</svg>
