<svg width="79" height="14" viewBox="0 0 79 14" fill="none" xmlns="http://www.w3.org/2000/svg">
<g clip-path="url(#clip0_31_34)">
<path fill-rule="evenodd" clip-rule="evenodd" d="M3.95458 12.9919C3.95458 13.4442 3.74213 13.684 3.26781 13.684L0.705745 13.6827C0.243894 13.6827 0.0136719 13.4567 0.0136719 12.9977V1.28592C0.0136719 0.826869 0.232672 0.596948 0.705745 0.596948H3.26235C3.72498 0.596948 3.95458 0.815496 3.95458 1.28592V12.9919Z" fill="#515D73"/>
<path fill-rule="evenodd" clip-rule="evenodd" d="M7.54861 12.9918L7.54785 11.4323C7.54785 10.9639 7.77462 10.7434 8.24069 10.7434C8.24069 10.7434 19.0696 10.7434 19.3699 10.7434C19.5718 10.7434 19.6712 10.6704 19.7164 10.5348C19.7573 10.4125 19.7253 10.2126 19.4677 10.1295C19.2091 10.0451 10.4603 7.26665 10.0878 7.14148C8.26296 6.52625 7.5759 5.36343 7.5759 3.94064C7.5759 2.14081 8.78625 0.596878 11.5982 0.596878C14.4818 0.596878 21.7488 0.596878 21.7488 0.596878C22.2268 0.596878 22.4349 0.8268 22.4349 1.28692L22.4339 2.8963C22.4339 3.37143 22.2151 3.58339 21.7559 3.58339C21.7559 3.58339 11.9746 3.57872 11.7299 3.57872C11.5085 3.57872 11.3999 3.63594 11.3659 3.7614C11.3301 3.89077 11.3379 4.07316 11.6044 4.15544C11.9406 4.25783 19.2675 6.57693 20.6169 7.01415C22.697 7.68751 23.4779 8.65233 23.4779 10.4631C23.4779 12.6258 21.9881 13.6476 19.4315 13.6826C18.4674 13.6959 8.24584 13.6842 8.24584 13.6842C7.75778 13.6842 7.54861 13.4972 7.54861 12.9918Z" fill="#515D73"/>
<path fill-rule="evenodd" clip-rule="evenodd" d="M29.8251 0.596869C30.2862 0.596869 30.5133 0.809195 30.5133 1.28037C30.5133 1.28037 30.5137 7.47319 30.5137 8.70376C30.5137 9.9347 30.8141 10.6611 32.4983 10.7161C32.888 10.7296 33.4904 10.7359 34.009 10.7359C34.5274 10.7359 35.2463 10.7296 35.636 10.7161C37.3202 10.6611 37.5046 9.9347 37.5049 8.70376C37.5049 7.47319 37.5056 1.28037 37.5056 1.28037C37.5056 0.815419 37.7064 0.594873 38.1954 0.594873L40.7925 0.596869C41.2681 0.596869 41.476 0.820886 41.476 1.28584C41.476 1.28584 41.476 7.8379 41.476 9.32789C41.476 11.4872 41.1169 13.6016 37.0033 13.6714C35.5892 13.6951 34.009 13.7107 34.009 13.7107C34.009 13.7107 32.3279 13.6878 30.9134 13.6714C27.0323 13.6247 26.5653 11.3937 26.5653 9.32789C26.5653 7.8379 26.5635 1.28037 26.5635 1.28037C26.5635 0.820886 26.7703 0.596869 27.2441 0.596869H29.8251Z" fill="#515D73"/>
<path fill-rule="evenodd" clip-rule="evenodd" d="M66.875 0.596869C67.3355 0.596869 67.5622 0.809195 67.5622 1.28037C67.5622 1.28037 67.5626 7.47319 67.5626 8.70376C67.5626 9.9347 67.863 10.6611 69.5474 10.7161C69.9368 10.7296 70.5393 10.7359 71.0581 10.7359C71.5768 10.7359 72.2959 10.7296 72.6853 10.7161C74.3692 10.6611 74.5536 9.9347 74.5536 8.70376C74.5536 7.47319 74.5552 1.28037 74.5552 1.28037C74.5552 0.815419 74.7559 0.594873 75.2443 0.594873L77.842 0.596869C78.3177 0.596869 78.5256 0.820886 78.5256 1.28584C78.5256 1.28584 78.5252 7.8379 78.5252 9.32789C78.5252 11.4872 78.1664 13.6016 74.0524 13.6714C72.6383 13.6951 71.0581 13.7107 71.0581 13.7107C71.0581 13.7107 69.377 13.6878 67.9628 13.6714C64.0814 13.6247 63.6145 11.3937 63.6145 9.32789C63.6145 7.8379 63.6125 1.28037 63.6125 1.28037C63.6125 0.820886 63.8193 0.596869 64.2941 0.596869H66.875Z" fill="#515D73"/>
<path fill-rule="evenodd" clip-rule="evenodd" d="M60.4884 12.9914C60.4884 13.4972 60.2793 13.6842 59.7917 13.6842C59.7917 13.6842 49.5697 13.6959 48.6057 13.6826C46.0487 13.6476 44.5591 12.6258 44.5591 10.4631C44.5591 8.65233 45.34 7.68751 47.4201 7.01415C48.7697 6.57693 56.0967 4.25783 56.4323 4.15544C56.6992 4.07316 56.7068 3.89077 56.6709 3.7614C56.637 3.63594 56.5288 3.57872 56.3074 3.57872C56.0624 3.57872 46.2813 3.58339 46.2813 3.58339C45.822 3.58339 45.6033 3.37143 45.6033 2.8963L45.6022 1.28692C45.6022 0.8268 45.8104 0.596878 46.2881 0.596878C46.2881 0.596878 53.5553 0.596878 56.4387 0.596878C59.251 0.596878 60.4613 2.14081 60.4613 3.94064C60.4613 5.36343 59.7742 6.52625 57.949 7.14148C57.5771 7.26665 48.8279 10.0451 48.5698 10.1295C48.312 10.2126 48.2797 10.4125 48.3208 10.5348C48.3662 10.6704 48.4656 10.7434 48.6671 10.7434C48.9676 10.7434 59.7965 10.7434 59.7965 10.7434C60.2618 10.7434 60.4896 10.9639 60.4896 11.4323L60.4884 12.9914Z" fill="#515D73"/>
</g>
<defs>
<clipPath id="clip0_31_34">
<rect width="78.5135" height="13.1162" fill="white" transform="translate(0.0136719 0.594482)"/>
</clipPath>
</defs>
</svg>
