<svg width="420" height="205" viewBox="0 0 420 205" fill="none" xmlns="http://www.w3.org/2000/svg">
<line opacity="0.4" x1="38" y1="204.5" x2="382" y2="204.5" stroke="white"/>
<g clip-path="url(#clip0_2019_1484)">
<path d="M-2.09828 57.475L-0.628213 57.8689C0.972186 58.2977 1.92193 59.9427 1.49311 61.5431L-0.837326 70.2404C-1.6323 73.2073 2.01591 75.3102 4.18476 73.1352L17.6714 59.6105C19.3008 57.9765 18.5524 55.1916 16.3235 54.5944L14.1341 54.0077C12.5337 53.5789 11.584 51.9339 12.0128 50.3335L14.2126 42.1238C15.0164 39.1237 11.2907 37.0292 9.1454 39.2752L-3.49123 52.5051C-5.0653 54.1531 -4.29955 56.8852 -2.09828 57.475Z" fill="#64FF03"/>
<path d="M109.902 158.2L111.372 158.594C112.972 159.023 113.922 160.668 113.493 162.268L111.163 170.966C110.368 173.932 114.016 176.035 116.185 173.86L129.671 160.336C131.301 158.702 130.552 155.917 128.324 155.319L126.134 154.733C124.534 154.304 123.584 152.659 124.013 151.059L126.213 142.849C127.016 139.849 123.291 137.754 121.145 140L108.509 153.23C106.935 154.878 107.7 157.61 109.902 158.2Z" fill="#64FF03"/>
<path d="M83.8597 70.8334L85.3298 71.2273C86.9302 71.6561 87.8799 73.3011 87.4511 74.9015L85.1207 83.5988C84.3257 86.5657 87.9739 88.6686 90.1428 86.4936L103.629 72.9689C105.259 71.3349 104.51 68.55 102.282 67.9528L100.092 67.3661C98.4917 66.9373 97.542 65.2923 97.9708 63.6919L100.171 55.4822C100.974 52.4821 97.2487 50.3876 95.1034 52.6336L82.4668 65.8635C80.8927 67.5115 81.6585 70.2436 83.8597 70.8334Z" fill="#64FF03"/>
<path d="M199.366 174.574L200.836 174.968C202.437 175.397 203.386 177.042 202.957 178.642L200.627 187.34C199.832 190.306 203.48 192.409 205.649 190.234L219.136 176.71C220.765 175.076 220.017 172.291 217.788 171.694L215.598 171.107C213.998 170.678 213.048 169.033 213.477 167.433L215.677 159.223C216.481 156.223 212.755 154.128 210.61 156.374L197.973 169.604C196.399 171.252 197.165 173.984 199.366 174.574Z" fill="#64FF03"/>
<path d="M172.722 83.611L174.192 84.0049C175.792 84.4337 176.742 86.0787 176.313 87.6791L173.982 96.3764C173.188 99.3433 176.836 101.446 179.005 99.2712L192.491 85.7465C194.121 84.1125 193.372 81.3276 191.143 80.7304L188.954 80.1437C187.354 79.7149 186.404 78.0699 186.833 76.4695L189.032 68.2598C189.836 65.2597 186.11 63.1652 183.965 65.4112L171.329 78.6411C169.755 80.289 170.52 83.0211 172.722 83.611Z" fill="#64FF03"/>
<path d="M19.8185 119.922L18.3484 120.316C16.748 120.745 15.7983 122.39 16.2271 123.99L18.5575 132.687C19.3525 135.654 15.7043 137.757 13.5355 135.582L0.0488201 122.058C-1.58054 120.424 -0.832225 117.639 1.39667 117.041L3.5861 116.455C5.1865 116.026 6.13624 114.381 5.70742 112.781L3.50764 104.571C2.70377 101.571 6.42955 99.4763 8.57482 101.722L21.2114 114.952C22.7855 116.6 22.0198 119.332 19.8185 119.922Z" fill="#64FF03"/>
<path d="M296.902 182.2L298.372 182.594C299.972 183.023 300.922 184.668 300.493 186.268L298.163 194.966C297.368 197.932 301.016 200.035 303.185 197.86L316.671 184.336C318.301 182.702 317.552 179.917 315.324 179.319L313.134 178.733C311.534 178.304 310.584 176.659 311.013 175.059L313.213 166.849C314.016 163.849 310.291 161.754 308.145 164L295.509 177.23C293.935 178.878 294.7 181.61 296.902 182.2Z" fill="#64FF03"/>
<path d="M41.4042 99.8315L42.6478 98.9542C44.0017 97.9992 45.8735 98.3225 46.8285 99.6763L52.0188 107.034C53.7893 109.544 57.7402 108.087 57.4575 105.029L55.6995 86.0097C55.4872 83.712 52.8685 82.5043 50.983 83.8344L49.1308 85.141C47.7769 86.096 45.9051 85.7727 44.9501 84.4189L40.0508 77.4737C38.2604 74.9357 34.2663 76.4575 34.6187 79.5434L36.6942 97.7204C36.9528 99.9846 39.5419 101.145 41.4042 99.8315Z" fill="#64FF03"/>
<path d="M156.911 203.572L158.155 202.695C159.509 201.74 161.38 202.063 162.335 203.417L167.526 210.775C169.296 213.285 173.247 211.828 172.964 208.77L171.206 189.751C170.994 187.453 168.375 186.245 166.49 187.575L164.638 188.882C163.284 189.837 161.412 189.514 160.457 188.16L155.558 181.215C153.767 178.677 149.773 180.198 150.126 183.284L152.201 201.461C152.46 203.726 155.049 204.886 156.911 203.572Z" fill="#64FF03"/>
<path d="M127.363 113.19L128.606 112.313C129.96 111.358 131.832 111.681 132.787 113.035L137.977 120.392C139.748 122.902 143.699 121.445 143.416 118.387L141.658 99.3681C141.446 97.0704 138.827 95.8627 136.941 97.1928L135.089 98.4994C133.735 99.4544 131.864 99.1311 130.909 97.7773L126.009 90.8321C124.219 88.2941 120.225 89.8159 120.577 92.9017L122.653 111.079C122.911 113.343 125.5 114.504 127.363 113.19Z" fill="#64FF03"/>
<path d="M77.5617 143.128L76.318 142.251C74.9641 141.296 73.0924 141.619 72.1373 142.973L66.947 150.331C65.1765 152.841 61.2256 151.384 61.5083 148.325L63.2663 129.306C63.4787 127.009 66.0973 125.801 67.9828 127.131L69.835 128.438C71.1889 129.393 73.0607 129.069 74.0158 127.715L78.9151 120.77C80.7054 118.232 84.6995 119.754 84.3471 122.84L82.2716 141.017C82.0131 143.281 79.4239 144.442 77.5617 143.128Z" fill="#64FF03"/>
<path d="M216.224 125.967L217.468 125.09C218.822 124.135 220.694 124.458 221.649 125.812L226.839 133.17C228.61 135.68 232.561 134.223 232.278 131.165L230.52 112.146C230.307 109.848 227.689 108.64 225.803 109.97L223.951 111.277C222.597 112.232 220.725 111.909 219.77 110.555L214.871 103.61C213.081 101.072 209.087 102.593 209.439 105.679L211.515 123.856C211.773 126.121 214.362 127.281 216.224 125.967Z" fill="#64FF03"/>
<path d="M344.438 195.142L345.682 194.265C347.036 193.309 348.908 193.633 349.863 194.987L355.053 202.344C356.824 204.854 360.774 203.397 360.492 200.339L358.734 181.32C358.521 179.022 355.903 177.815 354.017 179.145L352.165 180.451C350.811 181.406 348.939 181.083 347.984 179.729L343.085 172.784C341.295 170.246 337.301 171.768 337.653 174.854L339.728 193.031C339.987 195.295 342.576 196.455 344.438 195.142Z" fill="#64FF03"/>
<path d="M402.112 203.299L403.355 202.421C404.709 201.466 406.581 201.79 407.536 203.143L412.726 210.501C414.497 213.011 418.448 211.554 418.165 208.496L416.407 189.477C416.195 187.179 413.576 185.971 411.69 187.301L409.838 188.608C408.484 189.563 406.613 189.24 405.658 187.886L400.758 180.941C398.968 178.403 394.974 179.925 395.326 183.01L397.402 201.187C397.66 203.452 400.249 204.612 402.112 203.299Z" fill="#64FF03"/>
<path d="M194.154 41.8525L195.398 40.9752C196.752 40.0202 198.623 40.3435 199.579 41.6973L204.769 49.055C206.539 51.5649 210.49 50.1081 210.207 47.0496L208.45 28.0307C208.237 25.733 205.619 24.5253 203.733 25.8554L201.881 27.162C200.527 28.117 198.655 27.7937 197.7 26.4399L192.801 19.4947C191.01 16.9567 187.016 18.4785 187.369 21.5643L189.444 39.7414C189.703 42.0056 192.292 43.1662 194.154 41.8525Z" fill="#64FF03"/>
<path d="M1.87974 225.128L3.12337 224.251C4.47726 223.296 6.34904 223.619 7.30411 224.973L12.4944 232.331C14.2649 234.841 18.2158 233.384 17.9331 230.325L16.1751 211.306C15.9627 209.009 13.3441 207.801 11.4586 209.131L9.60637 210.438C8.25248 211.393 6.38071 211.069 5.42564 209.715L0.52634 202.77C-1.26401 200.232 -5.25808 201.754 -4.90572 204.84L-2.83019 223.017C-2.57166 225.281 0.0175344 226.442 1.87974 225.128Z" fill="#64FF03"/>
<path d="M309.661 143.75L310.904 142.873C312.258 141.918 314.13 142.241 315.085 143.595L320.275 150.953C322.046 153.463 325.997 152.006 325.714 148.947L323.956 129.928C323.744 127.631 321.125 126.423 319.239 127.753L317.387 129.06C316.033 130.015 314.161 129.691 313.206 128.338L308.307 121.392C306.517 118.854 302.523 120.376 302.875 123.462L304.951 141.639C305.209 143.903 307.798 145.064 309.661 143.75Z" fill="#64FF03"/>
<path d="M367.334 151.907L368.577 151.03C369.931 150.075 371.803 150.398 372.758 151.752L377.948 159.109C379.719 161.619 383.67 160.163 383.387 157.104L381.629 138.085C381.417 135.787 378.798 134.58 376.913 135.91L375.06 137.216C373.707 138.171 371.835 137.848 370.88 136.494L365.98 129.549C364.19 127.011 360.196 128.533 360.548 131.619L362.624 149.796C362.882 152.06 365.472 153.221 367.334 151.907Z" fill="#64FF03"/>
<path d="M50.0924 42.4866L51.564 42.8748C53.166 43.2975 54.122 44.9389 53.6993 46.5409L51.4022 55.2471C50.6186 58.217 54.2749 60.3059 56.4354 58.1226L69.8701 44.5463C71.4932 42.9061 70.7342 40.1241 68.5031 39.5354L66.3114 38.9572C64.7094 38.5345 63.7533 36.8931 64.176 35.2911L66.3444 27.073C67.1367 24.0699 63.403 21.9897 61.2663 24.2439L48.6804 37.522C47.1127 39.176 47.8889 41.9052 50.0924 42.4866Z" fill="#64FF03"/>
<path d="M165.599 144.384L167.07 144.773C168.672 145.195 169.628 146.837 169.206 148.439L166.909 157.145C166.125 160.115 169.781 162.204 171.942 160.02L185.376 146.444C187 144.804 186.241 142.022 184.009 141.433L181.818 140.855C180.216 140.432 179.26 138.791 179.682 137.189L181.851 128.971C182.643 125.968 178.909 123.887 176.773 126.142L164.187 139.42C162.619 141.074 163.395 143.803 165.599 144.384Z" fill="#64FF03"/>
<path d="M49.3539 184.212L47.8823 184.6C46.2803 185.023 45.3243 186.664 45.747 188.266L48.0441 196.972C48.8277 199.942 45.1714 202.031 43.0109 199.848L29.5762 186.271C27.9531 184.631 28.7121 181.849 30.9432 181.261L33.1349 180.682C34.7369 180.26 35.693 178.618 35.2703 177.016L33.1019 168.798C32.3096 165.795 36.0433 163.715 38.18 165.969L50.7659 179.247C52.3336 180.901 51.5574 183.63 49.3539 184.212Z" fill="#64FF03"/>
<path d="M136.05 54.0017L137.522 54.39C139.124 54.8127 140.08 56.454 139.657 58.056L137.36 66.7622C136.577 69.7321 140.233 71.821 142.393 69.6377L155.828 56.0615C157.451 54.4213 156.692 51.6392 154.461 51.0506L152.269 50.4723C150.667 50.0496 149.711 48.4082 150.134 46.8062L152.302 38.5881C153.095 35.585 149.361 33.5048 147.224 35.759L134.638 49.0372C133.071 50.6911 133.847 53.4203 136.05 54.0017Z" fill="#64FF03"/>
<path d="M251.557 157.743L253.028 158.131C254.63 158.554 255.586 160.195 255.164 161.797L252.867 170.503C252.083 173.473 255.739 175.562 257.9 173.379L271.334 159.802C272.958 158.162 272.199 155.38 269.967 154.792L267.776 154.213C266.174 153.791 265.218 152.149 265.64 150.547L267.809 142.329C268.601 139.326 264.867 137.246 262.731 139.5L250.145 152.778C248.577 154.432 249.353 157.161 251.557 157.743Z" fill="#64FF03"/>
<path d="M224.913 66.7793L226.384 67.1675C227.986 67.5902 228.942 69.2316 228.52 70.8336L226.223 79.5398C225.439 82.5097 229.095 84.5986 231.256 82.4153L244.69 68.8391C246.314 67.1989 245.555 64.4168 243.323 63.8281L241.132 63.2499C239.53 62.8272 238.574 61.1858 238.996 59.5838L241.165 51.3657C241.957 48.3626 238.223 46.2824 236.087 48.5366L223.501 61.8147C221.933 63.4687 222.709 66.1979 224.913 66.7793Z" fill="#64FF03"/>
<path d="M340.124 102.228L341.595 102.616C343.197 103.039 344.153 104.68 343.731 106.282L341.433 114.989C340.65 117.958 344.306 120.047 346.467 117.864L359.901 104.288C361.524 102.648 360.765 99.8656 358.534 99.2769L356.343 98.6986C354.741 98.2759 353.785 96.6346 354.207 95.0325L356.376 86.8145C357.168 83.8113 353.434 81.7311 351.298 83.9853L338.712 97.2635C337.144 98.9175 337.92 101.647 340.124 102.228Z" fill="#64FF03"/>
<path d="M397.797 110.385L399.269 110.773C400.871 111.196 401.827 112.837 401.404 114.439L399.107 123.145C398.324 126.115 401.98 128.204 404.14 126.021L417.575 112.445C419.198 110.804 418.439 108.022 416.208 107.434L414.016 106.855C412.414 106.433 411.458 104.791 411.881 103.189L414.049 94.9712C414.842 91.9681 411.108 89.8879 408.971 92.142L396.386 105.42C394.818 107.074 395.594 109.803 397.797 110.385Z" fill="#64FF03"/>
<path d="M335.811 49.0433L334.341 49.4373C332.74 49.8661 331.79 51.5111 332.219 53.1115L334.55 61.8088C335.345 64.7757 331.696 66.8785 329.528 64.7036L316.041 51.1788C314.412 49.5449 315.16 46.76 317.389 46.1627L319.578 45.5761C321.179 45.1473 322.128 43.5023 321.7 41.9019L319.5 33.6922C318.696 30.6921 322.422 28.5976 324.567 30.8436L337.204 44.0735C338.778 45.7214 338.012 48.4535 335.811 49.0433Z" fill="#64FF03"/>
<path d="M452.288 132.378L449.587 130.473C448.233 129.518 446.362 129.841 445.407 131.195L437.724 142.085C435.954 144.595 432.003 143.138 432.286 140.08L434.652 114.48C434.864 112.182 437.483 110.975 439.368 112.305L442.81 114.733C444.164 115.688 446.036 115.365 446.991 114.011L454.382 103.533C456.173 100.995 460.167 102.517 459.814 105.603L456.998 130.267C456.74 132.531 454.15 133.692 452.288 132.378Z" fill="#64FF03"/>
<path d="M292.308 91.3999L291.064 90.5226C289.71 89.5675 287.838 89.8908 286.883 91.2447L281.693 98.6023C279.923 101.112 275.972 99.6554 276.254 96.5969L278.012 77.5781C278.225 75.2803 280.843 74.0726 282.729 75.4028L284.581 76.7093C285.935 77.6644 287.807 77.3411 288.762 75.9872L293.661 69.0421C295.452 66.5041 299.446 68.0259 299.093 71.1117L297.018 89.2888C296.759 91.553 294.17 92.7135 292.308 91.3999Z" fill="#64FF03"/>
<path d="M373.067 45.58L370.367 43.6748C369.013 42.7197 367.141 43.043 366.186 44.3969L358.504 55.2871C356.733 57.797 352.782 56.3402 353.065 53.2817L355.431 27.6821C355.644 25.3844 358.262 24.1766 360.148 25.5068L363.59 27.9347C364.943 28.8898 366.815 28.5665 367.77 27.2126L375.162 16.7349C376.952 14.1969 380.946 15.7187 380.594 18.8045L377.777 43.469C377.519 45.7332 374.93 46.8937 373.067 45.58Z" fill="#64FF03"/>
<path d="M424.726 56.5934L421.531 57.4367C419.929 57.8593 418.972 59.5007 419.395 61.1027L422.795 73.9889C423.579 76.9588 419.923 79.0477 417.762 76.8644L399.679 58.5906C398.056 56.9504 398.815 54.1684 401.046 53.5797L405.118 52.5051C406.72 52.0824 407.676 50.4411 407.254 48.839L403.983 36.441C403.19 33.4378 406.924 31.3576 409.061 33.6118L426.138 51.6289C427.706 53.2829 426.93 56.012 424.726 56.5934Z" fill="#64FF03"/>
<path d="M283.62 34.0549L282.148 34.4432C280.546 34.8659 279.59 36.5072 280.013 38.1093L282.31 46.8154C283.094 49.7853 279.438 51.8742 277.277 49.691L263.842 36.1147C262.219 34.4745 262.978 31.6925 265.209 31.1038L267.401 30.5255C269.003 30.1028 269.959 28.4615 269.536 26.8594L267.368 18.6414C266.576 15.6382 270.309 13.558 272.446 15.8122L285.032 29.0904C286.6 30.7444 285.824 33.4735 283.62 34.0549Z" fill="#64FF03"/>
<path d="M112.354 213.212L110.882 213.6C109.28 214.023 108.324 215.664 108.747 217.266L111.044 225.972C111.828 228.942 108.171 231.031 106.011 228.848L92.5762 215.271C90.9531 213.631 91.7121 210.849 93.9432 210.261L96.1349 209.682C97.7369 209.26 98.693 207.618 98.2703 206.016L96.1019 197.798C95.3096 194.795 99.0433 192.715 101.18 194.969L113.766 208.247C115.334 209.901 114.557 212.63 112.354 213.212Z" fill="#64FF03"/>
<path d="M260.821 216.212L262.292 216.6C263.895 217.023 264.851 218.664 264.428 220.266L262.131 228.972C261.347 231.942 265.003 234.031 267.164 231.848L280.599 218.271C282.222 216.631 281.463 213.849 279.232 213.261L277.04 212.682C275.438 212.26 274.482 210.618 274.905 209.016L277.073 200.798C277.865 197.795 274.131 195.715 271.995 197.969L259.409 211.247C257.841 212.901 258.617 215.63 260.821 216.212Z" fill="#64FF03"/>
</g>
<defs>
<clipPath id="clip0_2019_1484">
<rect width="786" height="205" fill="white" transform="translate(-207)"/>
</clipPath>
</defs>
</svg>
