<svg width="420" height="218" viewBox="0 0 420 218" fill="none" xmlns="http://www.w3.org/2000/svg">
<path d="M-2.09828 -5.52501L-0.628213 -5.13111C0.972186 -4.70228 1.92193 -3.05727 1.49311 -1.45687L-0.837326 7.24042C-1.6323 10.2073 2.01591 12.3102 4.18476 10.1352L17.6714 -3.38951C19.3008 -5.02348 18.5524 -7.80839 16.3235 -8.40562L14.1341 -8.99227C12.5337 -9.4211 11.584 -11.0661 12.0128 -12.6665L14.2126 -20.8762C15.0164 -23.8763 11.2907 -25.9708 9.1454 -23.7248L-3.49123 -10.4949C-5.0653 -8.84694 -4.29955 -6.11484 -2.09828 -5.52501Z" fill="#64FF03"/>
<path d="M109.902 95.2001L111.372 95.594C112.972 96.0228 113.922 97.6678 113.493 99.2682L111.163 107.966C110.368 110.932 114.016 113.035 116.185 110.86L129.671 97.3356C131.301 95.7016 130.552 92.9167 128.324 92.3195L126.134 91.7328C124.534 91.304 123.584 89.659 124.013 88.0586L126.213 79.8489C127.016 76.8488 123.291 74.7543 121.145 77.0003L108.509 90.2302C106.935 91.8782 107.7 94.6103 109.902 95.2001Z" fill="#64FF03"/>
<path d="M83.8597 7.83339L85.3298 8.22729C86.9302 8.65612 87.8799 10.3011 87.4511 11.9015L85.1207 20.5988C84.3257 23.5657 87.9739 25.6686 90.1428 23.4936L103.629 9.96888C105.259 8.33492 104.51 5.55001 102.282 4.95278L100.092 4.36613C98.4917 3.9373 97.542 2.29229 97.9708 0.691894L100.171 -7.5178C100.974 -10.5179 97.2487 -12.6124 95.1034 -10.3664L82.4668 2.86349C80.8927 4.51146 81.6585 7.24356 83.8597 7.83339Z" fill="#64FF03"/>
<path d="M199.366 111.574L200.836 111.968C202.436 112.397 203.386 114.042 202.957 115.642L200.627 124.34C199.832 127.306 203.48 129.409 205.649 127.234L219.136 113.71C220.765 112.076 220.017 109.291 217.788 108.694L215.598 108.107C213.998 107.678 213.048 106.033 213.477 104.433L215.677 96.2229C216.481 93.2228 212.755 91.1284 210.61 93.3743L197.973 106.604C196.399 108.252 197.165 110.984 199.366 111.574Z" fill="#64FF03"/>
<path d="M172.722 20.611L174.192 21.0049C175.792 21.4337 176.742 23.0787 176.313 24.6791L173.983 33.3764C173.188 36.3433 176.836 38.4462 179.005 36.2712L192.491 22.7465C194.121 21.1125 193.373 18.3276 191.144 17.7304L188.954 17.1437C187.354 16.7149 186.404 15.0699 186.833 13.4695L189.033 5.25978C189.837 2.25971 186.111 0.165219 183.965 2.4112L171.329 15.6411C169.755 17.289 170.521 20.0211 172.722 20.611Z" fill="#64FF03"/>
<path d="M19.8182 56.9218L18.3482 57.3157C16.7478 57.7445 15.798 59.3895 16.2269 60.9899L18.5573 69.6872C19.3523 72.6541 15.7041 74.757 13.5352 72.582L0.048576 59.0573C-1.58079 57.4233 -0.83247 54.6384 1.39643 54.0412L3.58585 53.4545C5.18625 53.0257 6.136 51.3807 5.70717 49.7803L3.50739 41.5706C2.70353 38.5705 6.4293 36.476 8.57457 38.722L21.2112 51.9519C22.7853 53.5998 22.0195 56.3319 19.8182 56.9218Z" fill="#64FF03"/>
<path d="M296.902 119.2L298.372 119.594C299.972 120.023 300.922 121.668 300.493 123.268L298.163 131.966C297.368 134.932 301.016 137.035 303.185 134.86L316.671 121.336C318.301 119.702 317.552 116.917 315.324 116.319L313.134 115.733C311.534 115.304 310.584 113.659 311.013 112.059L313.213 103.849C314.016 100.849 310.291 98.7543 308.145 101L295.509 114.23C293.935 115.878 294.7 118.61 296.902 119.2Z" fill="#64FF03"/>
<path d="M41.4044 36.8313L42.648 35.954C44.0019 34.9989 45.8737 35.3222 46.8288 36.6761L52.019 44.0337C53.7896 46.5436 57.7404 45.0868 57.4577 42.0283L55.6998 23.0095C55.4874 20.7117 52.8688 19.504 50.9832 20.8341L49.131 22.1407C47.7771 23.0958 45.9054 22.7725 44.9503 21.4186L40.051 14.4735C38.2606 11.9355 34.2666 13.4573 34.6189 16.5431L36.6945 34.7202C36.953 36.9844 39.5422 38.1449 41.4044 36.8313Z" fill="#64FF03"/>
<path d="M156.911 140.572L158.154 139.695C159.508 138.74 161.38 139.063 162.335 140.417L167.525 147.775C169.296 150.285 173.247 148.828 172.964 145.77L171.206 126.751C170.994 124.453 168.375 123.245 166.49 124.575L164.637 125.882C163.283 126.837 161.412 126.514 160.457 125.16L155.557 118.215C153.767 115.677 149.773 117.198 150.125 120.284L152.201 138.461C152.459 140.726 155.049 141.886 156.911 140.572Z" fill="#64FF03"/>
<path d="M342.644 173.128L343.888 172.251C345.242 171.296 347.114 171.619 348.069 172.973L353.259 180.331C355.03 182.841 358.98 181.384 358.698 178.325L356.94 159.306C356.727 157.009 354.109 155.801 352.223 157.131L350.371 158.438C349.017 159.393 347.145 159.069 346.19 157.715L341.291 150.77C339.501 148.232 335.507 149.754 335.859 152.84L337.934 171.017C338.193 173.281 340.782 174.442 342.644 173.128Z" fill="#64FF03"/>
<path d="M127.363 50.1897L128.606 49.3124C129.96 48.3573 131.832 48.6806 132.787 50.0345L137.977 57.3921C139.748 59.902 143.699 58.4452 143.416 55.3867L141.658 36.3679C141.446 34.0701 138.827 32.8624 136.941 34.1925L135.089 35.4991C133.735 36.4542 131.864 36.1309 130.909 34.777L126.009 27.8319C124.219 25.2939 120.225 26.8157 120.577 29.9015L122.653 48.0786C122.911 50.3428 125.5 51.5033 127.363 50.1897Z" fill="#64FF03"/>
<path d="M77.5619 80.1281L76.3183 79.2509C74.9644 78.2958 73.0926 78.6191 72.1375 79.973L66.9473 87.3306C65.1767 89.8405 61.2259 88.3837 61.5086 85.3252L63.2665 66.3063C63.4789 64.0086 66.0975 62.8009 67.9831 64.131L69.8353 65.4376C71.1892 66.3927 73.0609 66.0694 74.016 64.7155L78.9153 57.7703C80.7057 55.2324 84.6997 56.7541 84.3474 59.84L82.2718 78.0171C82.0133 80.2813 79.4241 81.4418 77.5619 80.1281Z" fill="#64FF03"/>
<path d="M216.225 62.9675L217.468 62.0902C218.822 61.1351 220.694 61.4584 221.649 62.8123L226.839 70.17C228.61 72.6799 232.561 71.2231 232.278 68.1646L230.52 49.1457C230.308 46.848 227.689 45.6402 225.804 46.9704L223.951 48.277C222.597 49.232 220.726 48.9087 219.771 47.5548L214.871 40.6097C213.081 38.0717 209.087 39.5935 209.439 42.6793L211.515 60.8564C211.773 63.1206 214.363 64.2812 216.225 62.9675Z" fill="#64FF03"/>
<path d="M344.438 132.142L345.682 131.265C347.036 130.309 348.907 130.633 349.862 131.987L355.053 139.344C356.823 141.854 360.774 140.397 360.491 137.339L358.733 118.32C358.521 116.022 355.902 114.815 354.017 116.145L352.165 117.451C350.811 118.406 348.939 118.083 347.984 116.729L343.085 109.784C341.294 107.246 337.3 108.768 337.653 111.854L339.728 130.031C339.987 132.295 342.576 133.455 344.438 132.142Z" fill="#64FF03"/>
<path d="M402.112 140.299L403.355 139.421C404.709 138.466 406.581 138.79 407.536 140.143L412.726 147.501C414.497 150.011 418.448 148.554 418.165 145.496L416.407 126.477C416.195 124.179 413.576 122.971 411.69 124.301L409.838 125.608C408.484 126.563 406.613 126.24 405.658 124.886L400.758 117.941C398.968 115.403 394.974 116.925 395.326 120.01L397.402 138.187C397.66 140.452 400.249 141.612 402.112 140.299Z" fill="#64FF03"/>
<path d="M1.87974 162.128L3.12337 161.251C4.47726 160.296 6.34904 160.619 7.30411 161.973L12.4944 169.331C14.2649 171.841 18.2158 170.384 17.9331 167.325L16.1751 148.306C15.9627 146.009 13.3441 144.801 11.4586 146.131L9.60637 147.438C8.25248 148.393 6.38071 148.069 5.42564 146.715L0.52634 139.77C-1.26401 137.232 -5.25808 138.754 -4.90572 141.84L-2.83019 160.017C-2.57166 162.281 0.0175344 163.442 1.87974 162.128Z" fill="#64FF03"/>
<path d="M309.661 80.7502L310.904 79.8729C312.258 78.9179 314.13 79.2412 315.085 80.595L320.275 87.9527C322.046 90.4626 325.997 89.0058 325.714 85.9473L323.956 66.9284C323.744 64.6307 321.125 63.423 319.239 64.7531L317.387 66.0597C316.033 67.0147 314.161 66.6914 313.206 65.3376L308.307 58.3924C306.517 55.8544 302.523 57.3762 302.875 60.4621L304.951 78.6391C305.209 80.9033 307.798 82.0639 309.661 80.7502Z" fill="#64FF03"/>
<path d="M367.334 88.907L368.578 88.0297C369.932 87.0746 371.803 87.3979 372.758 88.7518L377.949 96.1094C379.719 98.6193 383.67 97.1625 383.387 94.104L381.629 75.0851C381.417 72.7874 378.798 71.5797 376.913 72.9098L375.061 74.2164C373.707 75.1715 371.835 74.8482 370.88 73.4943L365.981 66.5491C364.19 64.0112 360.196 65.5329 360.549 68.6188L362.624 86.7959C362.883 89.0601 365.472 90.2206 367.334 88.907Z" fill="#64FF03"/>
<path d="M50.0926 -20.5134L51.5642 -20.1252C53.1662 -19.7025 54.1223 -18.0611 53.6996 -16.4591L51.4025 -7.75294C50.6189 -4.78303 54.2751 -2.69414 56.4356 -4.8774L69.8703 -18.4537C71.4934 -20.0939 70.7345 -22.8759 68.5033 -23.4646L66.3116 -24.0428C64.7096 -24.4655 63.7536 -26.1069 64.1763 -27.7089L66.3446 -35.927C67.137 -38.9301 63.4032 -41.0103 61.2665 -38.7561L48.6807 -25.478C47.1129 -23.824 47.8891 -21.0948 50.0926 -20.5134Z" fill="#64FF03"/>
<path d="M165.599 81.384L167.07 81.7723C168.672 82.195 169.628 83.8363 169.206 85.4384L166.909 94.1445C166.125 97.1144 169.781 99.2033 171.942 97.0201L185.376 83.4438C187 81.8036 186.241 79.0216 184.009 78.4329L181.818 77.8546C180.216 77.4319 179.26 75.7906 179.682 74.1885L181.851 65.9705C182.643 62.9673 178.909 60.8871 176.773 63.1413L164.187 76.4195C162.619 78.0735 163.395 80.8026 165.599 81.384Z" fill="#64FF03"/>
<path d="M49.3536 121.212L47.8821 121.6C46.2801 122.023 45.324 123.664 45.7467 125.266L48.0438 133.972C48.8274 136.942 45.1712 139.031 43.0107 136.848L29.5759 123.271C27.9528 121.631 28.7118 118.849 30.943 118.261L33.1346 117.682C34.7367 117.26 35.6927 115.618 35.27 114.016L33.1017 105.798C32.3093 102.795 36.0431 100.715 38.1797 102.969L50.7656 116.247C52.3334 117.901 51.5572 120.63 49.3536 121.212Z" fill="#64FF03"/>
<path d="M136.051 -8.99831L137.522 -8.61004C139.124 -8.18735 140.08 -6.54599 139.658 -4.94396L137.36 3.7622C136.577 6.73211 140.233 8.821 142.394 6.63774L155.828 -6.93854C157.451 -8.57873 156.692 -11.3608 154.461 -11.9494L152.27 -12.5277C150.668 -12.9504 149.712 -14.5918 150.134 -16.1938L152.303 -24.4119C153.095 -27.415 149.361 -29.4952 147.225 -27.241L134.639 -13.9628C133.071 -12.3089 133.847 -9.57971 136.051 -8.99831Z" fill="#64FF03"/>
<path d="M251.557 94.7424L253.028 95.1307C254.63 95.5534 255.586 97.1947 255.164 98.7968L252.867 107.503C252.083 110.473 255.739 112.562 257.9 110.378L271.334 96.8022C272.958 95.162 272.199 92.38 269.967 91.7913L267.776 91.213C266.174 90.7903 265.218 89.149 265.64 87.5469L267.809 79.3289C268.601 76.3257 264.867 74.2455 262.731 76.4997L250.145 89.7779C248.577 91.4319 249.353 94.161 251.557 94.7424Z" fill="#64FF03"/>
<path d="M224.913 3.77928L226.385 4.16755C227.987 4.59024 228.943 6.2316 228.52 7.83363L226.223 16.5398C225.439 19.5097 229.095 21.5986 231.256 19.4153L244.691 5.83905C246.314 4.19886 245.555 1.41684 243.324 0.828146L241.132 0.249879C239.53 -0.172815 238.574 -1.81417 238.997 -3.4162L241.165 -11.6343C241.957 -14.6374 238.224 -16.7176 236.087 -14.4634L223.501 -1.18525C221.933 0.468733 222.709 3.19788 224.913 3.77928Z" fill="#64FF03"/>
<path d="M41.8207 187.212L43.2922 187.6C44.8943 188.023 45.8503 189.664 45.4276 191.266L43.1305 199.972C42.3469 202.942 46.0031 205.031 48.1636 202.848L61.5984 189.271C63.2215 187.631 62.4625 184.849 60.2313 184.261L58.0397 183.682C56.4376 183.26 55.4816 181.618 55.9043 180.016L58.0726 171.798C58.865 168.795 55.1312 166.715 52.9946 168.969L40.4087 182.247C38.841 183.901 39.6172 186.63 41.8207 187.212Z" fill="#64FF03"/>
<path d="M340.124 39.2278L341.595 39.616C343.197 40.0387 344.154 41.6801 343.731 43.2821L341.434 51.9883C340.65 54.9582 344.306 57.0471 346.467 54.8638L359.902 41.2875C361.525 39.6473 360.766 36.8653 358.535 36.2766L356.343 35.6984C354.741 35.2757 353.785 33.6343 354.208 32.0323L356.376 23.8142C357.168 20.8111 353.434 18.7309 351.298 20.9851L338.712 34.2632C337.144 35.9172 337.92 38.6464 340.124 39.2278Z" fill="#64FF03"/>
<path d="M397.797 47.3845L399.269 47.7728C400.871 48.1955 401.827 49.8368 401.404 51.4389L399.107 60.145C398.324 63.1149 401.98 65.2038 404.14 63.0205L417.575 49.4443C419.198 47.8041 418.439 45.0221 416.208 44.4334L414.016 43.8551C412.414 43.4324 411.458 41.7911 411.881 40.189L414.049 31.971C414.842 28.9678 411.108 26.8876 408.971 29.1418L396.386 42.42C394.818 44.074 395.594 46.8031 397.797 47.3845Z" fill="#64FF03"/>
<path d="M335.811 -13.9567L334.341 -13.5627C332.74 -13.1339 331.79 -11.4889 332.219 -9.88851L334.55 -1.19122C335.345 1.77567 331.696 3.87854 329.528 1.70357L316.041 -11.8212C314.412 -13.4551 315.16 -16.24 317.389 -16.8373L319.578 -17.4239C321.179 -17.8527 322.128 -19.4977 321.7 -21.0981L319.5 -29.3078C318.696 -32.3079 322.422 -34.4024 324.567 -32.1564L337.204 -18.9265C338.778 -17.2786 338.012 -14.5465 335.811 -13.9567Z" fill="#64FF03"/>
<path d="M172.446 189.2L170.976 189.594C169.375 190.023 168.425 191.668 168.854 193.268L171.185 201.966C171.98 204.932 168.332 207.035 166.163 204.86L152.676 191.336C151.047 189.702 151.795 186.917 154.024 186.319L156.213 185.733C157.814 185.304 158.763 183.659 158.335 182.059L156.135 173.849C155.331 170.849 159.057 168.754 161.202 171L173.839 184.23C175.413 185.878 174.647 188.61 172.446 189.2Z" fill="#64FF03"/>
<path d="M393.484 -5.79991L392.014 -5.40601C390.414 -4.97718 389.464 -3.33217 389.893 -1.73178L392.223 6.96552C393.018 9.93241 389.37 12.0353 387.201 9.86031L373.715 -3.66442C372.085 -5.29838 372.834 -8.08329 375.062 -8.68052L377.252 -9.26717C378.852 -9.696 379.802 -11.341 379.373 -12.9414L377.173 -21.1511C376.37 -24.1512 380.095 -26.2457 382.241 -23.9997L394.877 -10.7698C396.451 -9.12184 395.686 -6.38974 393.484 -5.79991Z" fill="#64FF03"/>
<path d="M223.446 174.2L221.976 174.594C220.375 175.023 219.425 176.668 219.854 178.268L222.185 186.966C222.98 189.932 219.332 192.035 217.163 189.86L203.676 176.336C202.047 174.702 202.795 171.917 205.024 171.319L207.213 170.733C208.814 170.304 209.763 168.659 209.335 167.059L207.135 158.849C206.331 155.849 210.057 153.754 212.202 156L224.839 169.23C226.413 170.878 225.647 173.61 223.446 174.2Z" fill="#64FF03"/>
<path d="M414.446 186.2L412.976 186.594C411.375 187.023 410.425 188.668 410.854 190.268L413.185 198.966C413.98 201.932 410.332 204.035 408.163 201.86L394.676 188.336C393.047 186.702 393.795 183.917 396.024 183.319L398.213 182.733C399.814 182.304 400.763 180.659 400.335 179.059L398.135 170.849C397.331 167.849 401.057 165.754 403.202 168L415.839 181.23C417.413 182.878 416.647 185.61 414.446 186.2Z" fill="#64FF03"/>
<path d="M292.308 28.3996L291.064 27.5223C289.71 26.5673 287.838 26.8906 286.883 28.2445L281.693 35.6021C279.923 38.112 275.972 36.6552 276.254 33.5967L278.012 14.5778C278.225 12.2801 280.843 11.0724 282.729 12.4025L284.581 13.7091C285.935 14.6642 287.807 14.3409 288.762 12.987L293.661 6.04182C295.452 3.50386 299.446 5.02562 299.093 8.11147L297.018 26.2885C296.759 28.5528 294.17 29.7133 292.308 28.3996Z" fill="#64FF03"/>
<path d="M112.354 150.212L110.882 150.6C109.28 151.023 108.324 152.664 108.747 154.266L111.044 162.972C111.827 165.942 108.171 168.031 106.011 165.848L92.5759 152.271C90.9528 150.631 91.7118 147.849 93.943 147.261L96.1346 146.682C97.7367 146.26 98.6927 144.618 98.27 143.016L96.1017 134.798C95.3093 131.795 99.0431 129.715 101.18 131.969L113.766 145.247C115.333 146.901 114.557 149.63 112.354 150.212Z" fill="#64FF03"/>
<path d="M260.821 153.212L262.292 153.6C263.894 154.023 264.85 155.664 264.428 157.266L262.13 165.972C261.347 168.942 265.003 171.031 267.164 168.848L280.598 155.271C282.221 153.631 281.462 150.849 279.231 150.261L277.04 149.682C275.438 149.26 274.482 147.618 274.904 146.016L277.073 137.798C277.865 134.795 274.131 132.715 271.995 134.969L259.409 148.247C257.841 149.901 258.617 152.63 260.821 153.212Z" fill="#64FF03"/>
</svg>
