<svg width="76" height="93" viewBox="0 0 76 93" fill="none" xmlns="http://www.w3.org/2000/svg">
<g filter="url(#filter0_d_259_267)">
<path d="M32.876 12.2354C32.876 6.81844 44.4359 8.0386 47.4961 8.30418C55.9223 9.03548 65.4559 14.1258 66.2258 23.5469C66.8617 31.3294 61.1512 36.586 55.1334 40.4215C51.5798 42.6864 48.4768 44.4971 44.332 45.2799C42.2602 45.6711 40.1479 45.2678 38.113 45.6137C30.3567 46.9319 53.8061 47.5761 61.316 49.9528C64.2521 50.882 66.3681 51.7435 67.5714 54.8112C69.3743 59.4076 65.0771 62.8734 62.3344 65.9744C49.1303 80.9029 27.0813 85 8 85" stroke="#64FF03" stroke-width="3" stroke-linecap="round"/>
</g>
<defs>
<filter id="filter0_d_259_267" x="0.5" y="0.500488" width="75.0012" height="91.9995" filterUnits="userSpaceOnUse" color-interpolation-filters="sRGB">
<feFlood flood-opacity="0" result="BackgroundImageFix"/>
<feColorMatrix in="SourceAlpha" type="matrix" values="0 0 0 0 0 0 0 0 0 0 0 0 0 0 0 0 0 0 127 0" result="hardAlpha"/>
<feOffset/>
<feGaussianBlur stdDeviation="3"/>
<feComposite in2="hardAlpha" operator="out"/>
<feColorMatrix type="matrix" values="0 0 0 0 0.392157 0 0 0 0 1 0 0 0 0 0.0117647 0 0 0 1 0"/>
<feBlend mode="normal" in2="BackgroundImageFix" result="effect1_dropShadow_259_267"/>
<feBlend mode="normal" in="SourceGraphic" in2="effect1_dropShadow_259_267" result="shape"/>
</filter>
</defs>
</svg>
