<svg width="158" height="158" viewBox="0 0 158 158" fill="none" xmlns="http://www.w3.org/2000/svg">
<g filter="url(#filter0_d_259_270)">
<path d="M73.7047 12.4112C75.207 7.06003 82.793 7.06003 84.2953 12.4112L96.4408 55.6731C97.2421 58.5274 99.4726 60.7579 102.327 61.5592L145.589 73.7047C150.94 75.207 150.94 82.793 145.589 84.2953L102.327 96.4408C99.4726 97.2421 97.2421 99.4726 96.4408 102.327L84.2953 145.589C82.793 150.94 75.207 150.94 73.7047 145.589L61.5592 102.327C60.7579 99.4726 58.5274 97.2421 55.6731 96.4408L12.4112 84.2953C7.06003 82.793 7.06003 75.207 12.4112 73.7047L55.6731 61.5592C58.5274 60.7579 60.7579 58.5274 61.5592 55.6731L73.7047 12.4112Z" stroke="#64FF03" stroke-width="3" shape-rendering="crispEdges"/>
</g>
<defs>
<filter id="filter0_d_259_270" x="0.897827" y="0.897949" width="156.204" height="156.204" filterUnits="userSpaceOnUse" color-interpolation-filters="sRGB">
<feFlood flood-opacity="0" result="BackgroundImageFix"/>
<feColorMatrix in="SourceAlpha" type="matrix" values="0 0 0 0 0 0 0 0 0 0 0 0 0 0 0 0 0 0 127 0" result="hardAlpha"/>
<feOffset/>
<feGaussianBlur stdDeviation="3"/>
<feComposite in2="hardAlpha" operator="out"/>
<feColorMatrix type="matrix" values="0 0 0 0 0.392157 0 0 0 0 1 0 0 0 0 0.0117647 0 0 0 1 0"/>
<feBlend mode="normal" in2="BackgroundImageFix" result="effect1_dropShadow_259_270"/>
<feBlend mode="normal" in="SourceGraphic" in2="effect1_dropShadow_259_270" result="shape"/>
</filter>
</defs>
</svg>
