<svg width="191" height="35" viewBox="0 0 191 35" fill="none" xmlns="http://www.w3.org/2000/svg">
<mask id="path-1-outside-1_315_131" maskUnits="userSpaceOnUse" x="70.3125" y="5.75537" width="121" height="21" fill="black">
<rect fill="white" x="70.3125" y="5.75537" width="121" height="21"/>
<path d="M81.1209 10.8835C80.7246 10.8395 80.4715 10.8175 80.3614 10.8175C79.4367 10.8175 78.567 11.0596 77.7524 11.544C76.9598 12.0064 76.3323 12.6338 75.87 13.4264C75.3856 14.197 75.1434 15.0667 75.1434 16.0354L75.2095 24.9192H71.3455L71.3125 15.441C71.3125 13.8778 71.7088 12.4357 72.5014 11.1147C73.316 9.77166 74.4279 8.70385 75.8369 7.91125C77.202 7.14066 78.6771 6.75537 80.2623 6.75537L81.1209 6.82142V10.8835Z"/>
<path d="M81.3888 12.6999C82.0493 10.9826 83.1501 9.59553 84.6913 8.53872C86.2324 7.48192 87.9277 6.95352 89.7771 6.95352C91.0321 6.95352 92.3311 7.26175 93.6741 7.87822C95.0171 8.47267 96.162 9.46343 97.1087 10.8505C98.1435 12.4137 98.6609 14.0979 98.6609 15.9033C98.6609 16.3877 98.6278 16.861 98.5618 17.3234L98.4957 17.2904V17.3234L84.8234 17.6867C85.0876 18.4132 85.4839 19.0517 86.0123 19.6021C86.5407 20.1305 87.1571 20.5268 87.8617 20.791C88.4341 21.0112 89.0506 21.1213 89.7111 21.1213C90.4596 21.1213 91.1752 20.9782 91.8577 20.6919C92.5622 20.3837 93.1567 19.9544 93.6411 19.404L97.2408 20.791C96.4262 22.046 95.3473 23.0367 94.0043 23.7633C92.6613 24.4898 91.2302 24.8531 89.7111 24.8531C88.4341 24.8531 87.1241 24.5559 85.7811 23.9614C84.4601 23.345 83.3262 22.3322 82.3795 20.9231C81.3227 19.3599 80.7943 17.6757 80.7943 15.8703C80.7943 14.8135 80.9925 13.7567 81.3888 12.6999ZM84.7903 14.2521L94.5988 14.0209C94.3566 13.3384 93.9713 12.7439 93.4429 12.2375C92.9365 11.7091 92.3311 11.3128 91.6265 11.0486C91.0541 10.8285 90.4376 10.7184 89.7771 10.7184C88.6983 10.7184 87.7075 11.0156 86.8049 11.6101C85.9022 12.2045 85.2527 13.0191 84.8564 14.0539L84.7903 14.2521Z"/>
<path d="M100.256 12.6999C100.916 10.9826 102.017 9.59553 103.558 8.53872C105.099 7.48192 106.795 6.95352 108.644 6.95352C109.899 6.95352 111.198 7.26175 112.541 7.87822C113.884 8.47267 115.029 9.46343 115.976 10.8505C117.01 12.4137 117.528 14.0979 117.528 15.9033C117.528 16.3877 117.495 16.861 117.429 17.3234L117.363 17.2904V17.3234L103.69 17.6867C103.954 18.4132 104.351 19.0517 104.879 19.6021C105.408 20.1305 106.024 20.5268 106.729 20.791C107.301 21.0112 107.917 21.1213 108.578 21.1213C109.326 21.1213 110.042 20.9782 110.725 20.6919C111.429 20.3837 112.024 19.9544 112.508 19.404L116.108 20.791C115.293 22.046 114.214 23.0367 112.871 23.7633C111.528 24.4898 110.097 24.8531 108.578 24.8531C107.301 24.8531 105.991 24.5559 104.648 23.9614C103.327 23.345 102.193 22.3322 101.246 20.9231C100.19 19.3599 99.6612 17.6757 99.6612 15.8703C99.6612 14.8135 99.8593 13.7567 100.256 12.6999ZM103.657 14.2521L113.466 14.0209C113.223 13.3384 112.838 12.7439 112.31 12.2375C111.803 11.7091 111.198 11.3128 110.493 11.0486C109.921 10.8285 109.304 10.7184 108.644 10.7184C107.565 10.7184 106.574 11.0156 105.672 11.6101C104.769 12.2045 104.12 13.0191 103.723 14.0539L103.657 14.2521Z"/>
<path d="M131.309 14.8465C131.309 13.5695 130.868 12.5678 129.988 11.8412C129.107 11.0927 128.039 10.7184 126.784 10.7184C125.507 10.7184 124.428 11.0927 123.548 11.8412C122.667 12.5678 122.227 13.5695 122.227 14.8465V24.8531H118.528V14.8465C118.528 13.3053 118.902 11.9403 119.651 10.7514C120.421 9.54048 121.456 8.60477 122.755 7.94427C124.032 7.30579 125.375 6.98655 126.784 6.98655C128.237 6.98655 129.591 7.3168 130.846 7.9773C132.101 8.61578 133.125 9.51847 133.918 10.6854C134.688 11.9183 135.074 13.3053 135.074 14.8465L135.008 24.8531H131.309V14.8465Z"/>
<path d="M174.816 15.8703C174.816 14.9456 174.573 14.0869 174.089 13.2943C173.627 12.4797 172.999 11.8302 172.207 11.3459C171.414 10.8835 170.544 10.6523 169.598 10.6523C168.673 10.6523 167.803 10.8945 166.989 11.3789C166.196 11.8412 165.569 12.4687 165.106 13.2613C164.622 14.0319 164.38 14.9016 164.38 15.8703C164.38 16.795 164.611 17.6646 165.073 18.4793C165.558 19.2719 166.196 19.8993 166.989 20.3617C167.759 20.8461 168.629 21.0882 169.598 21.0882C170.522 21.0882 171.381 20.8571 172.174 20.3947C172.988 19.9104 173.638 19.2719 174.122 18.4793C174.584 17.6867 174.816 16.817 174.816 15.8703ZM174.816 23.1358C173.23 24.2587 171.491 24.8201 169.598 24.8201C167.99 24.8201 166.493 24.4238 165.106 23.6312C163.741 22.8166 162.662 21.7157 161.87 20.3287C161.055 18.9857 160.648 17.4995 160.648 15.8703C160.648 14.2631 161.044 12.7769 161.837 11.4119C162.651 10.0249 163.752 8.92402 165.139 8.1094C166.504 7.3168 167.99 6.9205 169.598 6.9205C171.183 6.9205 172.658 7.3168 174.023 8.1094C175.41 8.87998 176.511 9.92578 177.326 11.2468C178.14 12.5898 178.547 14.0429 178.547 15.6061L178.514 24.721H174.816V23.1358Z"/>
<path d="M190 10.8835C189.604 10.8395 189.351 10.8175 189.241 10.8175C188.316 10.8175 187.447 11.0596 186.632 11.544C185.839 12.0064 185.212 12.6338 184.749 13.4264C184.265 14.197 184.023 15.0667 184.023 16.0354L184.089 24.9192H180.225L180.192 15.441C180.192 13.8778 180.588 12.4357 181.381 11.1147C182.196 9.77166 183.307 8.70385 184.716 7.91125C186.081 7.14066 187.557 6.75537 189.142 6.75537L190 6.82142V10.8835Z"/>
<path d="M136.073 14.8465C136.073 12.3806 136.656 10.4542 137.823 9.06712C138.99 7.68007 140.619 6.98655 142.711 6.98655C143.635 6.98655 144.56 7.1847 145.485 7.581C146.409 7.95528 147.246 8.49469 147.995 9.19923C148.633 8.49469 149.382 7.95528 150.24 7.581C151.121 7.1847 152.046 6.98655 153.014 6.98655C153.961 6.98655 154.952 7.26175 155.987 7.81217C157.043 8.36259 157.913 9.10015 158.596 10.0249C159.3 10.9936 159.652 12.0834 159.652 13.2943V24.8201H155.635V14.8465C155.716 13.4665 155.169 10.7065 152.882 10.7065C150.11 10.7065 149.621 13.4665 149.643 14.8465L149.577 24.8531H145.879V14.8465C145.824 13.4665 145.879 10.7065 142.711 10.7065C140.306 10.7065 139.749 13.4665 139.771 14.8465V24.8531H136.073V14.8465Z"/>
</mask>
<path d="M81.1209 10.8835C80.7246 10.8395 80.4715 10.8175 80.3614 10.8175C79.4367 10.8175 78.567 11.0596 77.7524 11.544C76.9598 12.0064 76.3323 12.6338 75.87 13.4264C75.3856 14.197 75.1434 15.0667 75.1434 16.0354L75.2095 24.9192H71.3455L71.3125 15.441C71.3125 13.8778 71.7088 12.4357 72.5014 11.1147C73.316 9.77166 74.4279 8.70385 75.8369 7.91125C77.202 7.14066 78.6771 6.75537 80.2623 6.75537L81.1209 6.82142V10.8835Z" fill="white"/>
<path d="M81.3888 12.6999C82.0493 10.9826 83.1501 9.59553 84.6913 8.53872C86.2324 7.48192 87.9277 6.95352 89.7771 6.95352C91.0321 6.95352 92.3311 7.26175 93.6741 7.87822C95.0171 8.47267 96.162 9.46343 97.1087 10.8505C98.1435 12.4137 98.6609 14.0979 98.6609 15.9033C98.6609 16.3877 98.6278 16.861 98.5618 17.3234L98.4957 17.2904V17.3234L84.8234 17.6867C85.0876 18.4132 85.4839 19.0517 86.0123 19.6021C86.5407 20.1305 87.1571 20.5268 87.8617 20.791C88.4341 21.0112 89.0506 21.1213 89.7111 21.1213C90.4596 21.1213 91.1752 20.9782 91.8577 20.6919C92.5622 20.3837 93.1567 19.9544 93.6411 19.404L97.2408 20.791C96.4262 22.046 95.3473 23.0367 94.0043 23.7633C92.6613 24.4898 91.2302 24.8531 89.7111 24.8531C88.4341 24.8531 87.1241 24.5559 85.7811 23.9614C84.4601 23.345 83.3262 22.3322 82.3795 20.9231C81.3227 19.3599 80.7943 17.6757 80.7943 15.8703C80.7943 14.8135 80.9925 13.7567 81.3888 12.6999ZM84.7903 14.2521L94.5988 14.0209C94.3566 13.3384 93.9713 12.7439 93.4429 12.2375C92.9365 11.7091 92.3311 11.3128 91.6265 11.0486C91.0541 10.8285 90.4376 10.7184 89.7771 10.7184C88.6983 10.7184 87.7075 11.0156 86.8049 11.6101C85.9022 12.2045 85.2527 13.0191 84.8564 14.0539L84.7903 14.2521Z" fill="white"/>
<path d="M100.256 12.6999C100.916 10.9826 102.017 9.59553 103.558 8.53872C105.099 7.48192 106.795 6.95352 108.644 6.95352C109.899 6.95352 111.198 7.26175 112.541 7.87822C113.884 8.47267 115.029 9.46343 115.976 10.8505C117.01 12.4137 117.528 14.0979 117.528 15.9033C117.528 16.3877 117.495 16.861 117.429 17.3234L117.363 17.2904V17.3234L103.69 17.6867C103.954 18.4132 104.351 19.0517 104.879 19.6021C105.408 20.1305 106.024 20.5268 106.729 20.791C107.301 21.0112 107.917 21.1213 108.578 21.1213C109.326 21.1213 110.042 20.9782 110.725 20.6919C111.429 20.3837 112.024 19.9544 112.508 19.404L116.108 20.791C115.293 22.046 114.214 23.0367 112.871 23.7633C111.528 24.4898 110.097 24.8531 108.578 24.8531C107.301 24.8531 105.991 24.5559 104.648 23.9614C103.327 23.345 102.193 22.3322 101.246 20.9231C100.19 19.3599 99.6612 17.6757 99.6612 15.8703C99.6612 14.8135 99.8593 13.7567 100.256 12.6999ZM103.657 14.2521L113.466 14.0209C113.223 13.3384 112.838 12.7439 112.31 12.2375C111.803 11.7091 111.198 11.3128 110.493 11.0486C109.921 10.8285 109.304 10.7184 108.644 10.7184C107.565 10.7184 106.574 11.0156 105.672 11.6101C104.769 12.2045 104.12 13.0191 103.723 14.0539L103.657 14.2521Z" fill="white"/>
<path d="M131.309 14.8465C131.309 13.5695 130.868 12.5678 129.988 11.8412C129.107 11.0927 128.039 10.7184 126.784 10.7184C125.507 10.7184 124.428 11.0927 123.548 11.8412C122.667 12.5678 122.227 13.5695 122.227 14.8465V24.8531H118.528V14.8465C118.528 13.3053 118.902 11.9403 119.651 10.7514C120.421 9.54048 121.456 8.60477 122.755 7.94427C124.032 7.30579 125.375 6.98655 126.784 6.98655C128.237 6.98655 129.591 7.3168 130.846 7.9773C132.101 8.61578 133.125 9.51847 133.918 10.6854C134.688 11.9183 135.074 13.3053 135.074 14.8465L135.008 24.8531H131.309V14.8465Z" fill="white"/>
<path d="M174.816 15.8703C174.816 14.9456 174.573 14.0869 174.089 13.2943C173.627 12.4797 172.999 11.8302 172.207 11.3459C171.414 10.8835 170.544 10.6523 169.598 10.6523C168.673 10.6523 167.803 10.8945 166.989 11.3789C166.196 11.8412 165.569 12.4687 165.106 13.2613C164.622 14.0319 164.38 14.9016 164.38 15.8703C164.38 16.795 164.611 17.6646 165.073 18.4793C165.558 19.2719 166.196 19.8993 166.989 20.3617C167.759 20.8461 168.629 21.0882 169.598 21.0882C170.522 21.0882 171.381 20.8571 172.174 20.3947C172.988 19.9104 173.638 19.2719 174.122 18.4793C174.584 17.6867 174.816 16.817 174.816 15.8703ZM174.816 23.1358C173.23 24.2587 171.491 24.8201 169.598 24.8201C167.99 24.8201 166.493 24.4238 165.106 23.6312C163.741 22.8166 162.662 21.7157 161.87 20.3287C161.055 18.9857 160.648 17.4995 160.648 15.8703C160.648 14.2631 161.044 12.7769 161.837 11.4119C162.651 10.0249 163.752 8.92402 165.139 8.1094C166.504 7.3168 167.99 6.9205 169.598 6.9205C171.183 6.9205 172.658 7.3168 174.023 8.1094C175.41 8.87998 176.511 9.92578 177.326 11.2468C178.14 12.5898 178.547 14.0429 178.547 15.6061L178.514 24.721H174.816V23.1358Z" fill="white"/>
<path d="M190 10.8835C189.604 10.8395 189.351 10.8175 189.241 10.8175C188.316 10.8175 187.447 11.0596 186.632 11.544C185.839 12.0064 185.212 12.6338 184.749 13.4264C184.265 14.197 184.023 15.0667 184.023 16.0354L184.089 24.9192H180.225L180.192 15.441C180.192 13.8778 180.588 12.4357 181.381 11.1147C182.196 9.77166 183.307 8.70385 184.716 7.91125C186.081 7.14066 187.557 6.75537 189.142 6.75537L190 6.82142V10.8835Z" fill="white"/>
<path d="M136.073 14.8465C136.073 12.3806 136.656 10.4542 137.823 9.06712C138.99 7.68007 140.619 6.98655 142.711 6.98655C143.635 6.98655 144.56 7.1847 145.485 7.581C146.409 7.95528 147.246 8.49469 147.995 9.19923C148.633 8.49469 149.382 7.95528 150.24 7.581C151.121 7.1847 152.046 6.98655 153.014 6.98655C153.961 6.98655 154.952 7.26175 155.987 7.81217C157.043 8.36259 157.913 9.10015 158.596 10.0249C159.3 10.9936 159.652 12.0834 159.652 13.2943V24.8201H155.635V14.8465C155.716 13.4665 155.169 10.7065 152.882 10.7065C150.11 10.7065 149.621 13.4665 149.643 14.8465L149.577 24.8531H145.879V14.8465C145.824 13.4665 145.879 10.7065 142.711 10.7065C140.306 10.7065 139.749 13.4665 139.771 14.8465V24.8531H136.073V14.8465Z" fill="white"/>
<path d="M81.1209 10.8835C80.7246 10.8395 80.4715 10.8175 80.3614 10.8175C79.4367 10.8175 78.567 11.0596 77.7524 11.544C76.9598 12.0064 76.3323 12.6338 75.87 13.4264C75.3856 14.197 75.1434 15.0667 75.1434 16.0354L75.2095 24.9192H71.3455L71.3125 15.441C71.3125 13.8778 71.7088 12.4357 72.5014 11.1147C73.316 9.77166 74.4279 8.70385 75.8369 7.91125C77.202 7.14066 78.6771 6.75537 80.2623 6.75537L81.1209 6.82142V10.8835Z" stroke="black" stroke-width="2" mask="url(#path-1-outside-1_315_131)"/>
<path d="M81.3888 12.6999C82.0493 10.9826 83.1501 9.59553 84.6913 8.53872C86.2324 7.48192 87.9277 6.95352 89.7771 6.95352C91.0321 6.95352 92.3311 7.26175 93.6741 7.87822C95.0171 8.47267 96.162 9.46343 97.1087 10.8505C98.1435 12.4137 98.6609 14.0979 98.6609 15.9033C98.6609 16.3877 98.6278 16.861 98.5618 17.3234L98.4957 17.2904V17.3234L84.8234 17.6867C85.0876 18.4132 85.4839 19.0517 86.0123 19.6021C86.5407 20.1305 87.1571 20.5268 87.8617 20.791C88.4341 21.0112 89.0506 21.1213 89.7111 21.1213C90.4596 21.1213 91.1752 20.9782 91.8577 20.6919C92.5622 20.3837 93.1567 19.9544 93.6411 19.404L97.2408 20.791C96.4262 22.046 95.3473 23.0367 94.0043 23.7633C92.6613 24.4898 91.2302 24.8531 89.7111 24.8531C88.4341 24.8531 87.1241 24.5559 85.7811 23.9614C84.4601 23.345 83.3262 22.3322 82.3795 20.9231C81.3227 19.3599 80.7943 17.6757 80.7943 15.8703C80.7943 14.8135 80.9925 13.7567 81.3888 12.6999ZM84.7903 14.2521L94.5988 14.0209C94.3566 13.3384 93.9713 12.7439 93.4429 12.2375C92.9365 11.7091 92.3311 11.3128 91.6265 11.0486C91.0541 10.8285 90.4376 10.7184 89.7771 10.7184C88.6983 10.7184 87.7075 11.0156 86.8049 11.6101C85.9022 12.2045 85.2527 13.0191 84.8564 14.0539L84.7903 14.2521Z" stroke="black" stroke-width="2" mask="url(#path-1-outside-1_315_131)"/>
<path d="M100.256 12.6999C100.916 10.9826 102.017 9.59553 103.558 8.53872C105.099 7.48192 106.795 6.95352 108.644 6.95352C109.899 6.95352 111.198 7.26175 112.541 7.87822C113.884 8.47267 115.029 9.46343 115.976 10.8505C117.01 12.4137 117.528 14.0979 117.528 15.9033C117.528 16.3877 117.495 16.861 117.429 17.3234L117.363 17.2904V17.3234L103.69 17.6867C103.954 18.4132 104.351 19.0517 104.879 19.6021C105.408 20.1305 106.024 20.5268 106.729 20.791C107.301 21.0112 107.917 21.1213 108.578 21.1213C109.326 21.1213 110.042 20.9782 110.725 20.6919C111.429 20.3837 112.024 19.9544 112.508 19.404L116.108 20.791C115.293 22.046 114.214 23.0367 112.871 23.7633C111.528 24.4898 110.097 24.8531 108.578 24.8531C107.301 24.8531 105.991 24.5559 104.648 23.9614C103.327 23.345 102.193 22.3322 101.246 20.9231C100.19 19.3599 99.6612 17.6757 99.6612 15.8703C99.6612 14.8135 99.8593 13.7567 100.256 12.6999ZM103.657 14.2521L113.466 14.0209C113.223 13.3384 112.838 12.7439 112.31 12.2375C111.803 11.7091 111.198 11.3128 110.493 11.0486C109.921 10.8285 109.304 10.7184 108.644 10.7184C107.565 10.7184 106.574 11.0156 105.672 11.6101C104.769 12.2045 104.12 13.0191 103.723 14.0539L103.657 14.2521Z" stroke="black" stroke-width="2" mask="url(#path-1-outside-1_315_131)"/>
<path d="M131.309 14.8465C131.309 13.5695 130.868 12.5678 129.988 11.8412C129.107 11.0927 128.039 10.7184 126.784 10.7184C125.507 10.7184 124.428 11.0927 123.548 11.8412C122.667 12.5678 122.227 13.5695 122.227 14.8465V24.8531H118.528V14.8465C118.528 13.3053 118.902 11.9403 119.651 10.7514C120.421 9.54048 121.456 8.60477 122.755 7.94427C124.032 7.30579 125.375 6.98655 126.784 6.98655C128.237 6.98655 129.591 7.3168 130.846 7.9773C132.101 8.61578 133.125 9.51847 133.918 10.6854C134.688 11.9183 135.074 13.3053 135.074 14.8465L135.008 24.8531H131.309V14.8465Z" stroke="black" stroke-width="2" mask="url(#path-1-outside-1_315_131)"/>
<path d="M174.816 15.8703C174.816 14.9456 174.573 14.0869 174.089 13.2943C173.627 12.4797 172.999 11.8302 172.207 11.3459C171.414 10.8835 170.544 10.6523 169.598 10.6523C168.673 10.6523 167.803 10.8945 166.989 11.3789C166.196 11.8412 165.569 12.4687 165.106 13.2613C164.622 14.0319 164.38 14.9016 164.38 15.8703C164.38 16.795 164.611 17.6646 165.073 18.4793C165.558 19.2719 166.196 19.8993 166.989 20.3617C167.759 20.8461 168.629 21.0882 169.598 21.0882C170.522 21.0882 171.381 20.8571 172.174 20.3947C172.988 19.9104 173.638 19.2719 174.122 18.4793C174.584 17.6867 174.816 16.817 174.816 15.8703ZM174.816 23.1358C173.23 24.2587 171.491 24.8201 169.598 24.8201C167.99 24.8201 166.493 24.4238 165.106 23.6312C163.741 22.8166 162.662 21.7157 161.87 20.3287C161.055 18.9857 160.648 17.4995 160.648 15.8703C160.648 14.2631 161.044 12.7769 161.837 11.4119C162.651 10.0249 163.752 8.92402 165.139 8.1094C166.504 7.3168 167.99 6.9205 169.598 6.9205C171.183 6.9205 172.658 7.3168 174.023 8.1094C175.41 8.87998 176.511 9.92578 177.326 11.2468C178.14 12.5898 178.547 14.0429 178.547 15.6061L178.514 24.721H174.816V23.1358Z" stroke="black" stroke-width="2" mask="url(#path-1-outside-1_315_131)"/>
<path d="M190 10.8835C189.604 10.8395 189.351 10.8175 189.241 10.8175C188.316 10.8175 187.447 11.0596 186.632 11.544C185.839 12.0064 185.212 12.6338 184.749 13.4264C184.265 14.197 184.023 15.0667 184.023 16.0354L184.089 24.9192H180.225L180.192 15.441C180.192 13.8778 180.588 12.4357 181.381 11.1147C182.196 9.77166 183.307 8.70385 184.716 7.91125C186.081 7.14066 187.557 6.75537 189.142 6.75537L190 6.82142V10.8835Z" stroke="black" stroke-width="2" mask="url(#path-1-outside-1_315_131)"/>
<path d="M136.073 14.8465C136.073 12.3806 136.656 10.4542 137.823 9.06712C138.99 7.68007 140.619 6.98655 142.711 6.98655C143.635 6.98655 144.56 7.1847 145.485 7.581C146.409 7.95528 147.246 8.49469 147.995 9.19923C148.633 8.49469 149.382 7.95528 150.24 7.581C151.121 7.1847 152.046 6.98655 153.014 6.98655C153.961 6.98655 154.952 7.26175 155.987 7.81217C157.043 8.36259 157.913 9.10015 158.596 10.0249C159.3 10.9936 159.652 12.0834 159.652 13.2943V24.8201H155.635V14.8465C155.716 13.4665 155.169 10.7065 152.882 10.7065C150.11 10.7065 149.621 13.4665 149.643 14.8465L149.577 24.8531H145.879V14.8465C145.824 13.4665 145.879 10.7065 142.711 10.7065C140.306 10.7065 139.749 13.4665 139.771 14.8465V24.8531H136.073V14.8465Z" stroke="black" stroke-width="2" mask="url(#path-1-outside-1_315_131)"/>
<path d="M65.5453 24.5809C65.6012 24.5477 65.6567 24.514 65.7118 24.4798C65.6481 24.9097 65.5118 25.291 65.3079 25.6296L65.3036 25.6368L65.2996 25.6441C65.0073 26.1683 64.5531 26.6091 63.9111 26.9599L63.9111 26.9598L63.9051 26.9633C63.2873 27.3121 62.6478 27.4825 61.9796 27.4825C61.4919 27.4825 60.9996 27.3916 60.5003 27.205L60.5004 27.2049L60.489 27.201C60.0192 27.0381 59.59 26.7941 59.1992 26.4661L58.9372 26.2463L58.6373 26.4108L55.5699 28.0936L55.0244 28.3929L55.4341 28.8612C56.2628 29.8084 57.2523 30.5389 58.3987 31.0493C59.542 31.5584 60.7371 31.8137 61.9796 31.8137C63.3556 31.8137 64.7204 31.458 66.069 30.7621L66.069 30.7622L66.0751 30.7589C67.4443 30.028 68.513 28.9883 69.2724 27.6465C69.9379 26.4907 70.3096 25.2319 70.3899 23.8773H70.4065V23.3118V16.0815C70.4065 14.2781 69.959 12.631 69.0594 11.1524C68.1651 9.65973 66.9543 8.4777 65.4338 7.61154C63.932 6.74298 62.295 6.30884 60.5321 6.30884C58.7233 6.30884 57.0711 6.75452 55.5878 7.65069C54.0902 8.54158 52.9039 9.748 52.0344 11.2636C51.1625 12.7605 50.7266 14.3925 50.7266 16.1501C50.7266 17.9536 51.1741 19.6007 52.0737 21.0792C52.9671 22.5704 54.1655 23.7525 55.6634 24.6192L55.6664 24.6209C57.1898 25.4884 58.8376 25.9228 60.601 25.9228C62.4098 25.9228 64.0619 25.4771 65.5453 24.5809ZM64.8193 13.6502L64.8233 13.6572L64.8275 13.6641C65.2851 14.4101 65.512 15.2127 65.512 16.0815C65.512 16.9293 65.2953 17.7499 64.8524 18.5496C64.4139 19.3184 63.811 19.9301 63.0361 20.3896C62.2865 20.8249 61.4778 21.042 60.601 21.042C59.7491 21.042 58.9249 20.8258 58.122 20.3842C57.3484 19.9462 56.7351 19.3559 56.2753 18.6087C55.8378 17.838 55.6211 17.0211 55.6211 16.1501C55.6211 15.2766 55.8391 14.4573 56.2793 13.6845C56.719 12.9125 57.3113 12.313 58.0606 11.8774L58.0606 11.8774L58.0642 11.8753C58.8391 11.4162 59.659 11.1896 60.5321 11.1896C61.4098 11.1896 62.2327 11.4071 63.0087 11.846C63.7804 12.2825 64.3816 12.8816 64.8193 13.6502Z" fill="white" stroke="black"/>
<rect x="0.5" y="18" width="16.193" height="16.193" fill="white" stroke="black"/>
<rect x="17.6934" y="0.807129" width="16.193" height="16.193" fill="white" stroke="black"/>
<rect x="0.5" y="0.807129" width="7.59652" height="7.59652" fill="#64FF03" stroke="black"/>
<rect x="26.2891" y="26.5964" width="7.59652" height="7.59652" fill="#64FF03" stroke="black"/>
</svg>
