<svg width="46" height="47" viewBox="0 0 46 47" fill="none" xmlns="http://www.w3.org/2000/svg">
<g filter="url(#filter0_d_380_1291)">
<path d="M27.3 26.0713H12.3945C11.6244 26.0713 11 25.4469 11 24.6768C11 23.9066 11.6244 23.2822 12.3945 23.2822H27.3C28.9444 23.2822 30.3333 22.9723 31.4667 22.3525C32.6 21.7327 33.4611 20.8805 34.05 19.7959C34.6389 18.7002 34.9333 17.4495 34.9333 16.0439C34.9333 14.6383 34.6389 13.3932 34.05 12.3086C33.4611 11.2129 32.6 10.3551 31.4667 9.73535C30.3333 9.10449 28.9444 8.78906 27.3 8.78906H21.1333C20.0288 8.78906 19.1333 9.68449 19.1333 10.7891V38.4417C19.1333 39.3023 18.4356 40 17.575 40C16.7144 40 16.0167 39.3023 16.0167 38.4417V10C16.0167 7.79086 17.8075 6 20.0167 6H27.3C29.6333 6 31.5889 6.44824 33.1667 7.34473C34.7556 8.24121 35.9556 9.44759 36.7667 10.9639C37.5889 12.4801 38 14.1735 38 16.0439C38 17.9144 37.5889 19.6077 36.7667 21.124C35.9556 22.6403 34.7556 23.8467 33.1667 24.7432C31.5889 25.6286 29.6333 26.0713 27.3 26.0713ZM25.7721 29.1924C26.5423 29.1924 27.1667 29.8167 27.1667 30.5869C27.1667 31.3571 26.5423 31.9814 25.7721 31.9814H12.3945C11.6244 31.9814 11 31.3571 11 30.5869C11 29.8167 11.6244 29.1924 12.3945 29.1924H25.7721Z" fill="#64FF03"/>
</g>
<path d="M9.66699 8L39.667 38" stroke="#0F131A" stroke-width="6.66667" stroke-linecap="round" stroke-linejoin="round"/>
<g filter="url(#filter1_d_380_1291)">
<path d="M8 8.66669L38 38.6667" stroke="#64FF03" stroke-width="3" stroke-linecap="round" stroke-linejoin="round"/>
</g>
<defs>
<filter id="filter0_d_380_1291" x="5" y="0" width="39" height="46" filterUnits="userSpaceOnUse" color-interpolation-filters="sRGB">
<feFlood flood-opacity="0" result="BackgroundImageFix"/>
<feColorMatrix in="SourceAlpha" type="matrix" values="0 0 0 0 0 0 0 0 0 0 0 0 0 0 0 0 0 0 127 0" result="hardAlpha"/>
<feOffset/>
<feGaussianBlur stdDeviation="3"/>
<feComposite in2="hardAlpha" operator="out"/>
<feColorMatrix type="matrix" values="0 0 0 0 0.392157 0 0 0 0 1 0 0 0 0 0.0117647 0 0 0 1 0"/>
<feBlend mode="normal" in2="BackgroundImageFix" result="effect1_dropShadow_380_1291"/>
<feBlend mode="normal" in="SourceGraphic" in2="effect1_dropShadow_380_1291" result="shape"/>
</filter>
<filter id="filter1_d_380_1291" x="0.5" y="1.16669" width="45" height="45" filterUnits="userSpaceOnUse" color-interpolation-filters="sRGB">
<feFlood flood-opacity="0" result="BackgroundImageFix"/>
<feColorMatrix in="SourceAlpha" type="matrix" values="0 0 0 0 0 0 0 0 0 0 0 0 0 0 0 0 0 0 127 0" result="hardAlpha"/>
<feOffset/>
<feGaussianBlur stdDeviation="3"/>
<feComposite in2="hardAlpha" operator="out"/>
<feColorMatrix type="matrix" values="0 0 0 0 0.392157 0 0 0 0 1 0 0 0 0 0.0117647 0 0 0 1 0"/>
<feBlend mode="normal" in2="BackgroundImageFix" result="effect1_dropShadow_380_1291"/>
<feBlend mode="normal" in="SourceGraphic" in2="effect1_dropShadow_380_1291" result="shape"/>
</filter>
</defs>
</svg>
