<svg width="46" height="47" viewBox="0 0 46 47" fill="none" xmlns="http://www.w3.org/2000/svg">
<g filter="url(#filter0_d_380_1296)">
<path d="M18 39H28" stroke="#64FF03" stroke-width="3" stroke-linecap="round" stroke-linejoin="round"/>
</g>
<g filter="url(#filter1_d_380_1296)">
<path d="M23 9C17.4772 9 13 13.4772 13 19C13 21.3206 13.7904 23.4565 15.1167 25.1533C16.5823 27.0282 18 29.1277 18 31.5075V32.3337C18 33.2541 18.7462 34.0003 19.6667 34.0003H26.3333C27.2538 34.0003 28 33.2541 28 32.3337V31.5075C28 29.1277 29.4177 27.0282 30.8833 25.1533C32.2096 23.4565 33 21.3206 33 19C33 13.4772 28.5228 9 23 9Z" stroke="#64FF03" stroke-width="3" stroke-linecap="round" stroke-linejoin="round" shape-rendering="crispEdges"/>
</g>
<path d="M9.66699 7.33331L39.667 37.3333" stroke="#0F131A" stroke-width="6.66667" stroke-linecap="round" stroke-linejoin="round"/>
<g filter="url(#filter2_d_380_1296)">
<path d="M8 8L38 38" stroke="#64FF03" stroke-width="3" stroke-linecap="round" stroke-linejoin="round"/>
</g>
<defs>
<filter id="filter0_d_380_1296" x="10.5" y="31.5" width="25" height="15" filterUnits="userSpaceOnUse" color-interpolation-filters="sRGB">
<feFlood flood-opacity="0" result="BackgroundImageFix"/>
<feColorMatrix in="SourceAlpha" type="matrix" values="0 0 0 0 0 0 0 0 0 0 0 0 0 0 0 0 0 0 127 0" result="hardAlpha"/>
<feOffset/>
<feGaussianBlur stdDeviation="3"/>
<feComposite in2="hardAlpha" operator="out"/>
<feColorMatrix type="matrix" values="0 0 0 0 0.392157 0 0 0 0 1 0 0 0 0 0.0117647 0 0 0 1 0"/>
<feBlend mode="normal" in2="BackgroundImageFix" result="effect1_dropShadow_380_1296"/>
<feBlend mode="normal" in="SourceGraphic" in2="effect1_dropShadow_380_1296" result="shape"/>
</filter>
<filter id="filter1_d_380_1296" x="5.5" y="1.5" width="35" height="40.0003" filterUnits="userSpaceOnUse" color-interpolation-filters="sRGB">
<feFlood flood-opacity="0" result="BackgroundImageFix"/>
<feColorMatrix in="SourceAlpha" type="matrix" values="0 0 0 0 0 0 0 0 0 0 0 0 0 0 0 0 0 0 127 0" result="hardAlpha"/>
<feOffset/>
<feGaussianBlur stdDeviation="3"/>
<feComposite in2="hardAlpha" operator="out"/>
<feColorMatrix type="matrix" values="0 0 0 0 0.392157 0 0 0 0 1 0 0 0 0 0.0117647 0 0 0 1 0"/>
<feBlend mode="normal" in2="BackgroundImageFix" result="effect1_dropShadow_380_1296"/>
<feBlend mode="normal" in="SourceGraphic" in2="effect1_dropShadow_380_1296" result="shape"/>
</filter>
<filter id="filter2_d_380_1296" x="0.5" y="0.5" width="45" height="45" filterUnits="userSpaceOnUse" color-interpolation-filters="sRGB">
<feFlood flood-opacity="0" result="BackgroundImageFix"/>
<feColorMatrix in="SourceAlpha" type="matrix" values="0 0 0 0 0 0 0 0 0 0 0 0 0 0 0 0 0 0 127 0" result="hardAlpha"/>
<feOffset/>
<feGaussianBlur stdDeviation="3"/>
<feComposite in2="hardAlpha" operator="out"/>
<feColorMatrix type="matrix" values="0 0 0 0 0.392157 0 0 0 0 1 0 0 0 0 0.0117647 0 0 0 1 0"/>
<feBlend mode="normal" in2="BackgroundImageFix" result="effect1_dropShadow_380_1296"/>
<feBlend mode="normal" in="SourceGraphic" in2="effect1_dropShadow_380_1296" result="shape"/>
</filter>
</defs>
</svg>
