<svg width="40" height="40" viewBox="0 0 40 40" fill="none" xmlns="http://www.w3.org/2000/svg">
<path d="M20 40C8.9543 40 0 31.0457 0 20C0 8.9543 8.9543 0 20 0C31.0457 0 40 8.9543 40 20C40 31.0457 31.0457 40 20 40Z" fill="#25D366"/>
<path d="M20.6593 31.1277C27.2163 31.1251 32.5492 25.7909 32.5519 19.2352C32.5531 16.0576 31.3172 13.0697 29.0719 10.8218C26.8266 8.57387 23.8406 7.33536 20.6592 7.33398C14.1041 7.33398 8.76907 12.6687 8.76646 19.2259C8.76556 21.3219 9.31319 23.3678 10.3539 25.1714L8.66675 31.334L14.9712 29.6802C16.7082 30.6277 18.664 31.1271 20.6544 31.1277H20.6593Z" fill="white"/>
<path fill-rule="evenodd" clip-rule="evenodd" d="M11.5222 28.5077L15.2633 27.5263L15.6243 27.7406C17.1419 28.6412 18.8816 29.1177 20.6553 29.1184H20.6593C26.1075 29.1184 30.5417 24.684 30.5439 19.2337C30.5449 16.5924 29.5177 14.109 27.6515 12.2406C25.7853 10.3722 23.3034 9.34271 20.6632 9.3418C15.2109 9.3418 10.7766 13.7757 10.7744 19.2257C10.7736 21.0934 11.2962 22.9124 12.2857 24.4861L12.5207 24.8601L11.5222 28.5077ZM26.2439 21.7943C26.4511 21.8945 26.5911 21.9621 26.6508 22.0619C26.7251 22.1858 26.7251 22.7808 26.4776 23.475C26.2299 24.1691 25.0427 24.8026 24.4718 24.8879C23.9598 24.9644 23.312 24.9964 22.6002 24.7701C22.1685 24.6332 21.6151 24.4504 20.9061 24.1442C18.1203 22.9413 16.2377 20.2413 15.8819 19.731C15.857 19.6952 15.8395 19.6702 15.8298 19.6572L15.8274 19.654C15.6702 19.4442 14.6165 18.0383 14.6165 16.5833C14.6165 15.2145 15.2888 14.497 15.5983 14.1668C15.6195 14.1442 15.639 14.1234 15.6565 14.1043C15.9289 13.8068 16.2508 13.7324 16.4489 13.7324C16.647 13.7324 16.8453 13.7343 17.0184 13.7429C17.0398 13.744 17.062 13.7439 17.085 13.7438C17.2581 13.7427 17.474 13.7415 17.687 14.253C17.7689 14.4499 17.8888 14.7418 18.0153 15.0496C18.271 15.6721 18.5535 16.3599 18.6032 16.4595C18.6775 16.6082 18.727 16.7817 18.628 16.9801C18.6131 17.0098 18.5993 17.0379 18.5862 17.0647C18.5118 17.2166 18.4571 17.3283 18.3308 17.4758C18.2812 17.5337 18.2299 17.5962 18.1785 17.6587C18.0763 17.7832 17.9741 17.9077 17.8851 17.9964C17.7363 18.1446 17.5815 18.3053 17.7548 18.6028C17.9281 18.9003 18.5245 19.8734 19.4079 20.6614C20.3575 21.5084 21.1828 21.8664 21.6012 22.0478C21.6829 22.0833 21.749 22.112 21.7976 22.1363C22.0946 22.2851 22.268 22.2602 22.4413 22.0619C22.6147 21.8636 23.1842 21.1942 23.3822 20.8967C23.5803 20.5993 23.7785 20.6489 24.0508 20.748C24.3232 20.8473 25.7842 21.5661 26.0814 21.7148C26.1394 21.7438 26.1936 21.77 26.2439 21.7943Z" fill="#25D366"/>
</svg>
