<svg width="40" height="40" viewBox="0 0 40 40" fill="none" xmlns="http://www.w3.org/2000/svg">
<path fill-rule="evenodd" clip-rule="evenodd" d="M20 0C8.9543 0 0 8.9543 0 20C0 31.0457 8.9543 40 20 40C31.0457 40 40 31.0457 40 20C40 8.9543 31.0457 0 20 0ZM21.6284 26.3135C21.4312 26.5214 21.0462 26.5634 21.0462 26.5634H19.7712C19.7712 26.5634 16.9581 26.7293 14.48 24.1975C11.7776 21.4352 9.39128 15.9546 9.39128 15.9546C9.39128 15.9546 9.25355 15.5951 9.40276 15.422C9.57075 15.2264 10.0288 15.2141 10.0288 15.2141L13.0766 15.1947C13.0766 15.1947 13.3636 15.2407 13.5691 15.3893C13.7392 15.5122 13.8341 15.7406 13.8341 15.7406C13.8341 15.7406 14.3266 16.9635 14.9788 18.0696C16.2528 20.2297 16.8454 20.7018 17.2774 20.4704C17.9076 20.1334 17.7188 17.4172 17.7188 17.4172C17.7188 17.4172 17.7302 16.4319 17.4016 15.9925C17.147 15.6525 16.667 15.5531 16.4552 15.5255C16.283 15.5029 16.5648 15.1117 16.9299 14.9365C17.4788 14.6733 18.4471 14.658 19.5917 14.6692C20.4838 14.6784 20.7405 14.7327 21.089 14.8157C21.8978 15.0073 21.8726 15.6213 21.8181 16.9464C21.8018 17.3427 21.7829 17.8026 21.7829 18.3339C21.7829 18.4532 21.7793 18.5805 21.7757 18.7114C21.7568 19.3903 21.7351 20.1677 22.1908 20.4571C22.4246 20.6045 22.9953 20.4786 24.4237 18.0983C25.1009 16.9696 25.608 15.6433 25.608 15.6433C25.608 15.6433 25.7197 15.4067 25.8918 15.3053C26.0682 15.2018 26.3061 15.2336 26.3061 15.2336L29.5135 15.2141C29.5135 15.2141 30.4776 15.1004 30.6331 15.5285C30.7969 15.9761 30.2731 17.0229 28.9626 18.7374C27.7195 20.3642 27.1145 20.9632 27.17 21.4929C27.2106 21.88 27.6038 22.2301 28.3585 22.9172C29.9338 24.3529 30.3561 25.1082 30.4575 25.2897C30.4659 25.3048 30.4721 25.3159 30.4766 25.3231C31.183 26.4733 29.693 26.5634 29.693 26.5634L26.8434 26.6023C26.8434 26.6023 26.232 26.7211 25.4265 26.1783C25.0045 25.8942 24.5922 25.4302 24.1995 24.9882C23.5997 24.3132 23.0456 23.6896 22.5727 23.8369C21.7787 24.0848 21.8027 25.7635 21.8027 25.7635C21.8027 25.7635 21.809 26.123 21.6284 26.3135Z" fill="#0077FF"/>
<path d="M21.0461 26.5627C21.0461 26.5627 21.4312 26.5208 21.6284 26.3128C21.8089 26.1223 21.8026 25.7628 21.8026 25.7628C21.8026 25.7628 21.7786 24.0842 22.5727 23.8363C23.3552 23.5925 24.36 25.4597 25.4264 26.1776C26.2319 26.7205 26.8433 26.6017 26.8433 26.6017L29.6929 26.5627C29.6929 26.5627 31.1829 26.4726 30.4765 25.3224C30.4181 25.2282 30.0644 24.4713 28.3584 22.9166C26.571 21.2891 26.811 21.5523 28.9625 18.7367C30.273 17.0222 30.7968 15.9755 30.633 15.5279C30.4776 15.0998 29.5134 15.2135 29.5134 15.2135L26.306 15.2329C26.306 15.2329 26.0681 15.2012 25.8918 15.3046C25.7196 15.406 25.6079 15.6426 25.6079 15.6426C25.6079 15.6426 25.1008 16.969 24.4237 18.0976C22.9952 20.4779 22.4245 20.6039 22.1908 20.4564C21.6471 20.1112 21.7828 19.0717 21.7828 18.3332C21.7828 16.0257 22.1396 15.0639 21.0889 14.815C20.7404 14.7321 20.4837 14.6778 19.5916 14.6686C18.447 14.6573 17.4787 14.6727 16.9299 14.9359C16.5647 15.111 16.283 15.5023 16.4551 15.5248C16.6669 15.5525 17.1469 15.6518 17.4015 15.9919C17.7302 16.4312 17.7187 17.4165 17.7187 17.4165C17.7187 17.4165 17.9075 20.1327 17.2773 20.4697C16.8454 20.7012 16.2527 20.229 14.9787 18.069C14.3265 16.9628 13.8341 15.7399 13.8341 15.7399C13.8341 15.7399 13.7391 15.5115 13.569 15.3886C13.3635 15.2401 13.0765 15.194 13.0765 15.194L10.0287 15.2135C10.0287 15.2135 9.57067 15.2257 9.40268 15.4214C9.25347 15.5945 9.3912 15.954 9.3912 15.954C9.3912 15.954 11.7775 21.4345 14.4799 24.1968C16.958 26.7287 19.7711 26.5627 19.7711 26.5627H21.0461Z" fill="white"/>
</svg>
