<svg width="42" height="42" viewBox="0 0 42 42" fill="none" xmlns="http://www.w3.org/2000/svg">
<g filter="url(#filter0_d_52_1512)">
<path d="M17.6667 34.3332H9.33341C8.41294 34.3332 7.66675 33.587 7.66675 32.6665L7.66675 9.33317C7.66675 8.4127 8.41294 7.6665 9.33342 7.6665L32.6668 7.6665C33.5872 7.6665 34.3334 8.4127 34.3334 9.33317V17.6665" stroke="#64FF03" stroke-width="3" stroke-linecap="round" stroke-linejoin="round"/>
<path d="M27.6667 27.6665L32.6667 32.6665" stroke="#64FF03" stroke-width="3" stroke-linecap="round" stroke-linejoin="round"/>
<path d="M23.5001 29.3332C26.7217 29.3332 29.3334 26.7215 29.3334 23.4998C29.3334 20.2782 26.7217 17.6665 23.5001 17.6665C20.2784 17.6665 17.6667 20.2782 17.6667 23.4998C17.6667 26.7215 20.2784 29.3332 23.5001 29.3332Z" stroke="#64FF03" stroke-width="3" stroke-linecap="round" stroke-linejoin="round"/>
</g>
<defs>
<filter id="filter0_d_52_1512" x="-5" y="-5" width="52" height="52" filterUnits="userSpaceOnUse" color-interpolation-filters="sRGB">
<feFlood flood-opacity="0" result="BackgroundImageFix"/>
<feColorMatrix in="SourceAlpha" type="matrix" values="0 0 0 0 0 0 0 0 0 0 0 0 0 0 0 0 0 0 127 0" result="hardAlpha"/>
<feOffset/>
<feGaussianBlur stdDeviation="3"/>
<feComposite in2="hardAlpha" operator="out"/>
<feColorMatrix type="matrix" values="0 0 0 0 0.392157 0 0 0 0 1 0 0 0 0 0.0117647 0 0 0 1 0"/>
<feBlend mode="normal" in2="BackgroundImageFix" result="effect1_dropShadow_52_1512"/>
<feBlend mode="normal" in="SourceGraphic" in2="effect1_dropShadow_52_1512" result="shape"/>
</filter>
</defs>
</svg>
