<svg width="273" height="119" viewBox="0 0 273 119" fill="none" xmlns="http://www.w3.org/2000/svg">
<path d="M58.6128 12.8798V107.014" stroke="#64FF03" stroke-width="3" stroke-linecap="round"/>
<path d="M13.3052 12H57.2933" stroke="#64FF03" stroke-width="3" stroke-linecap="round"/>
<path d="M12 12.2394L12 107.018" stroke="#64FF03" stroke-width="3" stroke-linecap="round"/>
<path d="M43.7227 31.367C42.9466 29.8964 41.9972 28.5283 40.4919 27.7197C38.3116 26.5484 35.2062 26.3591 32.9323 27.3663C30.3033 28.5308 28.9704 31.6162 28.5909 34.2949C28.401 35.6346 28.4007 37.0986 28.9379 38.365C29.687 40.1306 31.4297 40.7104 33.2226 40.8323C34.1783 40.8972 44.9515 40.5588 42.1957 37.5825C41.909 37.2729 41.5182 37.1932 41.1229 37.084C39.3292 36.5884 37.4645 36.3463 35.6583 35.9103" stroke="#64FF03" stroke-width="3" stroke-linecap="round"/>
<path d="M261 12.8798V107.014" stroke="#64FF03" stroke-width="3" stroke-linecap="round"/>
<path d="M215.692 12H259.68" stroke="#64FF03" stroke-width="3" stroke-linecap="round"/>
<path d="M214.387 12.2394L214.387 107.018" stroke="#64FF03" stroke-width="3" stroke-linecap="round"/>
<path d="M246.11 31.367C245.334 29.8964 244.384 28.5283 242.879 27.7197C240.699 26.5484 237.593 26.3591 235.319 27.3663C232.691 28.5308 231.358 31.6162 230.978 34.2949C230.788 35.6346 230.788 37.0986 231.325 38.365C232.074 40.1306 233.817 40.7104 235.61 40.8323C236.566 40.8972 247.339 40.5588 244.583 37.5825" stroke="#64FF03" stroke-width="3" stroke-linecap="round"/>
<path d="M193.742 32.6448V106.778" stroke="#64FF03" stroke-width="3" stroke-linecap="round"/>
<path d="M148.127 31.7064H192.116" stroke="#64FF03" stroke-width="3" stroke-linecap="round"/>
<path d="M146.822 31.7064L146.822 106.778" stroke="#64FF03" stroke-width="3" stroke-linecap="round"/>
<path d="M126.178 58.9199V106.778" stroke="#64FF03" stroke-width="3" stroke-linecap="round"/>
<path d="M80.5625 57.9815H124.551" stroke="#64FF03" stroke-width="3" stroke-linecap="round"/>
<path d="M79.2578 57.9815L79.2578 106.778" stroke="#64FF03" stroke-width="3" stroke-linecap="round"/>
<path d="M96.4561 80.043C96.844 78.851 97.5527 77.716 98.2412 76.6782C99.861 74.2362 101.645 72.0318 102.483 69.1895C102.729 68.3563 103.005 67.5355 103.209 66.6913C103.372 66.0177 103.422 66.8175 103.451 67.0499C103.674 68.81 104.825 70.5613 105.418 72.2077C106.203 74.3898 106.96 76.5787 107.772 78.752C108.104 79.6412 108.441 80.5229 108.655 81.4415" stroke="#64FF03" stroke-width="3" stroke-linecap="round"/>
<path d="M105.84 75.7639C103.004 75.9742 100.218 75.4466 97.394 74.8727" stroke="#64FF03" stroke-width="3" stroke-linecap="round"/>
<path d="M167.168 51.8789C169.237 51.8789 173.181 52.9257 174.733 50.8011C175.16 50.2168 175.189 49.5875 175.189 48.8942C175.189 47.6232 175.038 47.1397 173.863 46.552C171.904 45.5723 168.92 43.8009 167.085 45.7229C165.554 47.3271 165.489 49.8092 165.489 51.8789C165.489 52.8829 165.406 53.9606 165.209 54.9466C165.022 55.8827 164.744 57.2901 164.971 58.2215C165.155 58.9802 166.168 59.1798 166.701 59.631C167.485 60.2941 168.566 60.7618 169.603 60.8228C171.477 60.933 173.313 59.4309 174.65 58.263C175.395 57.6125 175.838 56.9705 175.739 55.9726C175.597 54.5597 172.57 53.9139 171.417 53.7858C170.266 53.6579 169.072 53.7444 167.914 53.7444" stroke="#64FF03" stroke-width="3" stroke-linecap="round"/>
<path d="M164.959 88.9487L164.959 106.778" stroke="#64FF03" stroke-width="3" stroke-linecap="round"/>
<path d="M164.959 88.9487H174.343" stroke="#64FF03" stroke-width="3" stroke-linecap="round"/>
<path d="M175.281 88.9487L175.281 106.778" stroke="#64FF03" stroke-width="3" stroke-linecap="round"/>
<path d="M232.523 88.9487L232.523 106.778" stroke="#64FF03" stroke-width="3" stroke-linecap="round"/>
<path d="M232.523 88.9487H241.907" stroke="#64FF03" stroke-width="3" stroke-linecap="round"/>
<path d="M242.846 88.9487L242.846 106.778" stroke="#64FF03" stroke-width="3" stroke-linecap="round"/>
<path d="M97.394 88.9487L97.394 106.778" stroke="#64FF03" stroke-width="3" stroke-linecap="round"/>
<path d="M97.394 88.9487H106.778" stroke="#64FF03" stroke-width="3" stroke-linecap="round"/>
<path d="M107.717 88.9487L107.717 106.778" stroke="#64FF03" stroke-width="3" stroke-linecap="round"/>
<path d="M30.7681 88.9487L30.7681 106.778" stroke="#64FF03" stroke-width="3" stroke-linecap="round"/>
<path d="M30.7681 88.9487H40.1521" stroke="#64FF03" stroke-width="3" stroke-linecap="round"/>
<path d="M41.0903 88.9487L41.0903 106.778" stroke="#64FF03" stroke-width="3" stroke-linecap="round"/>
<g filter="url(#filter0_f_2021_1487)">
<path d="M58.6128 12.8798V107.014" stroke="#64FF03" stroke-width="3" stroke-linecap="round"/>
<path d="M13.3052 12H57.2933" stroke="#64FF03" stroke-width="3" stroke-linecap="round"/>
<path d="M12 12.2394L12 107.018" stroke="#64FF03" stroke-width="3" stroke-linecap="round"/>
<path d="M43.7227 31.367C42.9466 29.8964 41.9972 28.5283 40.4919 27.7197C38.3116 26.5484 35.2062 26.3591 32.9323 27.3663C30.3033 28.5308 28.9704 31.6162 28.5909 34.2949C28.401 35.6346 28.4007 37.0986 28.9379 38.365C29.687 40.1306 31.4297 40.7104 33.2226 40.8323C34.1783 40.8972 44.9515 40.5588 42.1957 37.5825C41.909 37.2729 41.5182 37.1932 41.1229 37.084C39.3292 36.5884 37.4645 36.3463 35.6583 35.9103" stroke="#64FF03" stroke-width="3" stroke-linecap="round"/>
<path d="M261 12.8798V107.014" stroke="#64FF03" stroke-width="3" stroke-linecap="round"/>
<path d="M215.692 12H259.68" stroke="#64FF03" stroke-width="3" stroke-linecap="round"/>
<path d="M214.387 12.2394L214.387 107.018" stroke="#64FF03" stroke-width="3" stroke-linecap="round"/>
<path d="M246.11 31.367C245.334 29.8964 244.384 28.5283 242.879 27.7197C240.699 26.5484 237.593 26.3591 235.319 27.3663C232.691 28.5308 231.358 31.6162 230.978 34.2949C230.788 35.6346 230.788 37.0986 231.325 38.365C232.074 40.1306 233.817 40.7104 235.61 40.8323C236.566 40.8972 247.339 40.5588 244.583 37.5825" stroke="#64FF03" stroke-width="3" stroke-linecap="round"/>
<path d="M193.742 32.6448V106.778" stroke="#64FF03" stroke-width="3" stroke-linecap="round"/>
<path d="M148.127 31.7064H192.116" stroke="#64FF03" stroke-width="3" stroke-linecap="round"/>
<path d="M146.822 31.7064L146.822 106.778" stroke="#64FF03" stroke-width="3" stroke-linecap="round"/>
<path d="M126.178 58.9199V106.778" stroke="#64FF03" stroke-width="3" stroke-linecap="round"/>
<path d="M80.5625 57.9815H124.551" stroke="#64FF03" stroke-width="3" stroke-linecap="round"/>
<path d="M79.2578 57.9815L79.2578 106.778" stroke="#64FF03" stroke-width="3" stroke-linecap="round"/>
<path d="M96.4561 80.043C96.844 78.851 97.5527 77.716 98.2412 76.6782C99.861 74.2362 101.645 72.0318 102.483 69.1895C102.729 68.3563 103.005 67.5355 103.209 66.6913C103.372 66.0177 103.422 66.8175 103.451 67.0499C103.674 68.81 104.825 70.5613 105.418 72.2077C106.203 74.3898 106.96 76.5787 107.772 78.752C108.104 79.6412 108.441 80.5229 108.655 81.4415" stroke="#64FF03" stroke-width="3" stroke-linecap="round"/>
<path d="M105.84 75.7639C103.004 75.9742 100.218 75.4466 97.394 74.8727" stroke="#64FF03" stroke-width="3" stroke-linecap="round"/>
<path d="M167.168 51.8789C169.237 51.8789 173.181 52.9257 174.733 50.8011C175.16 50.2168 175.189 49.5875 175.189 48.8942C175.189 47.6232 175.038 47.1397 173.863 46.552C171.904 45.5723 168.92 43.8009 167.085 45.7229C165.554 47.3271 165.489 49.8092 165.489 51.8789C165.489 52.8829 165.406 53.9606 165.209 54.9466C165.022 55.8827 164.744 57.2901 164.971 58.2215C165.155 58.9802 166.168 59.1798 166.701 59.631C167.485 60.2941 168.566 60.7618 169.603 60.8228C171.477 60.933 173.313 59.4309 174.65 58.263C175.395 57.6125 175.838 56.9705 175.739 55.9726C175.597 54.5597 172.57 53.9139 171.417 53.7858C170.266 53.6579 169.072 53.7444 167.914 53.7444" stroke="#64FF03" stroke-width="3" stroke-linecap="round"/>
<path d="M164.959 88.9487L164.959 106.778" stroke="#64FF03" stroke-width="3" stroke-linecap="round"/>
<path d="M164.959 88.9487H174.343" stroke="#64FF03" stroke-width="3" stroke-linecap="round"/>
<path d="M175.281 88.9487L175.281 106.778" stroke="#64FF03" stroke-width="3" stroke-linecap="round"/>
<path d="M232.523 88.9487L232.523 106.778" stroke="#64FF03" stroke-width="3" stroke-linecap="round"/>
<path d="M232.523 88.9487H241.907" stroke="#64FF03" stroke-width="3" stroke-linecap="round"/>
<path d="M242.846 88.9487L242.846 106.778" stroke="#64FF03" stroke-width="3" stroke-linecap="round"/>
<path d="M97.394 88.9487L97.394 106.778" stroke="#64FF03" stroke-width="3" stroke-linecap="round"/>
<path d="M97.394 88.9487H106.778" stroke="#64FF03" stroke-width="3" stroke-linecap="round"/>
<path d="M107.717 88.9487L107.717 106.778" stroke="#64FF03" stroke-width="3" stroke-linecap="round"/>
<path d="M30.7681 88.9487L30.7681 106.778" stroke="#64FF03" stroke-width="3" stroke-linecap="round"/>
<path d="M30.7681 88.9487H40.1521" stroke="#64FF03" stroke-width="3" stroke-linecap="round"/>
<path d="M41.0903 88.9487L41.0903 106.778" stroke="#64FF03" stroke-width="3" stroke-linecap="round"/>
</g>
<defs>
<filter id="filter0_f_2021_1487" x="0.4" y="0.4" width="272.2" height="118.218" filterUnits="userSpaceOnUse" color-interpolation-filters="sRGB">
<feFlood flood-opacity="0" result="BackgroundImageFix"/>
<feBlend mode="normal" in="SourceGraphic" in2="BackgroundImageFix" result="shape"/>
<feGaussianBlur stdDeviation="5.05" result="effect1_foregroundBlur_2021_1487"/>
</filter>
</defs>
</svg>
