<svg width="303" height="84" viewBox="0 0 303 84" fill="none" xmlns="http://www.w3.org/2000/svg">
<path d="M28.4705 60.7492C28.3697 59.7414 27.7505 58.7123 27.4644 57.744C26.7634 55.3712 26.274 52.9333 25.8834 50.4923C25.2125 46.299 24.3111 42.0902 24.028 37.8443C23.7602 33.827 25.4251 30.6339 28.5097 28.1949C31.6041 25.7481 35.9469 25.9379 39.7009 26.0651C42.3068 26.1534 45.0085 26.766 47.4556 27.6526C48.9764 28.2037 50.8082 28.6428 51.872 29.9654C52.9397 31.2927 53.7593 32.8173 54.8249 34.1596C55.7658 35.3448 56.335 36.5663 56.0009 38.1317C55.4246 40.8321 53.5603 42.6364 51.8067 44.6387C50.301 46.3577 48.7632 48.4487 46.8154 49.6953C45.9306 50.2615 45.1678 50.5071 44.1107 50.5184C42.2899 50.5379 40.4615 50.4846 38.649 50.7013C37.9337 50.7869 36.8985 50.8733 36.2579 51.2501C35.4187 51.7438 34.7108 52.6274 34.0301 53.308C32.5637 54.7745 31.5405 56.7701 30.3586 58.4692C29.7699 59.3153 29.3771 60.2713 28.8233 61.102" stroke="#64FF03" stroke-width="3" stroke-linecap="round"/>
<path d="M108 40H298" stroke="#64FF03" stroke-width="3" stroke-linecap="round"/>
<path d="M108 24H235" stroke="#64FF03" stroke-width="3" stroke-linecap="round"/>
<path d="M234 24C238.888 23.2256 244.445 21.3593 244.687 14.5922C244.752 12.7814 244.126 9.78689 245.713 8.66967C249.111 6.27678 254.176 7.22866 258 7.01232" stroke="#64FF03" stroke-width="3" stroke-linecap="round"/>
<path d="M258 7H299" stroke="#64FF03" stroke-width="3" stroke-linecap="round"/>
<path d="M107 59H233" stroke="#64FF03" stroke-width="3" stroke-linecap="round"/>
<path d="M233 59C235.912 59 239.18 59.0428 241.873 60.5616C244.981 62.3145 245.664 67.1545 248.698 68.7598C251.704 70.3494 255.44 70.403 258.644 70.7508C261.796 71.0929 264.942 71.5135 268.102 71.7267C270.74 71.9047 273.359 72 276 72" stroke="#64FF03" stroke-width="3" stroke-linecap="round"/>
<path d="M276 72H298" stroke="#64FF03" stroke-width="3" stroke-linecap="round"/>
<path d="M301 6C300.326 5.44801 299.398 5.18106 298.629 4.87037C296.104 3.8511 293.55 2.93505 291 2" stroke="#64FF03" stroke-width="3" stroke-linecap="round"/>
<path d="M301 7C299.361 7.57652 297.772 8.72278 296.17 9.5C293.476 10.8069 290.71 11.7687 288 13" stroke="#64FF03" stroke-width="3" stroke-linecap="round"/>
<path d="M297 39C292.442 36.3241 287.704 34.1976 283 32" stroke="#64FF03" stroke-width="3" stroke-linecap="round"/>
<path d="M297 42C294.018 42.5575 290.837 43.4688 288 45" stroke="#64FF03" stroke-width="3" stroke-linecap="round"/>
<path d="M298 70C293.03 68.1114 288.238 66.2167 283 65" stroke="#64FF03" stroke-width="3" stroke-linecap="round"/>
<path d="M298 73C295.336 73.4891 292.827 74.8897 290.324 76.0577C285.599 78.2627 280.844 80.2346 276 82" stroke="#64FF03" stroke-width="3" stroke-linecap="round"/>
<circle cx="40" cy="44" r="38" stroke="#64FF03" stroke-width="3" stroke-linecap="round"/>
</svg>
