<svg width="288" height="101" viewBox="0 0 288 101" fill="none" xmlns="http://www.w3.org/2000/svg">
<path d="M1.76367 80.5343C16.6779 90.5852 33.3959 90.1346 50.21 86.2914C61.0077 83.8233 73.3765 81.0565 82.9331 75.1574C87.3009 72.4612 90.0257 68.8527 89.6134 63.5618C89.2942 59.4649 87.1659 51.6946 81.711 51.6946C77.5161 51.6946 72.9128 52.6758 69.1106 54.3559C62.9871 57.0616 58.8291 65.8049 58.4926 72.1974C58.275 76.3332 58.9066 78.3798 62.3216 81.1317C73.737 90.3305 87.7495 94.5653 101.997 96.8551C111.84 98.4371 122.925 100.033 132.547 96.502C141.61 93.1763 150.552 86.4536 157.069 79.3937C164.634 71.1987 170.649 60.8439 176.866 51.6131C180.124 46.7756 182.31 41.9744 186.153 37.4105C189.434 33.5141 193.678 30.1355 198.373 28.1231C207.145 24.364 217.196 26.9838 226.018 29.6982C233.457 31.9872 240.702 35.6129 245.924 41.5654C249.047 45.1265 249.906 50.2873 250.051 54.8718C250.204 59.6893 248.95 63.8657 247.309 68.3684C245.648 72.9236 243.734 80.2486 238.619 82.2723C230.002 85.681 222.729 79.8785 218.795 72.6047C211.242 58.6392 225.457 41.2369 235.088 32.5224C249.176 19.7762 267.552 10.1574 284.784 2.32489" stroke="#64FF03" stroke-width="3" stroke-linecap="round"/>
<path d="M285.272 2.32489C277.12 2.32489 268.981 2.60476 260.832 2.8137" stroke="#64FF03" stroke-width="3" stroke-linecap="round"/>
<path d="M286.25 3.30255C283.325 3.56846 279.94 7.22933 278.266 9.27688C274.928 13.3605 274.454 19.3025 273.541 24.3213" stroke="#64FF03" stroke-width="3" stroke-linecap="round"/>
</svg>
