<svg width="269" height="118" viewBox="0 0 269 118" fill="none" xmlns="http://www.w3.org/2000/svg">
<path d="M137.006 13.4458V106.999" stroke="#64FF03" stroke-width="3" stroke-linecap="round"/>
<path d="M135.172 12.2229C130.945 12.6926 129.481 19.6545 126 21.3948" stroke="#64FF03" stroke-width="3" stroke-linecap="round"/>
<path d="M136.395 11C138.716 13.089 141.206 14.5882 143.426 16.8089C144.973 18.3559 145.991 20.9957 148.012 22.0063" stroke="#64FF03" stroke-width="3" stroke-linecap="round"/>
<path d="M12.6445 61.9431C15.7835 67.4917 19.5536 72.6028 22.5637 78.2566C24.5428 81.9738 26.3593 85.8109 28.0569 89.6666C29.6778 93.3481 31.8256 96.6972 33.6208 100.318" stroke="#64FF03" stroke-width="3" stroke-linecap="round"/>
<path d="M223.007 16.904C220.814 22.8896 219.362 29.0727 217.005 35.0283C215.455 38.9439 213.708 42.8134 211.871 46.6043C210.116 50.224 208.956 54.0297 207.361 57.7426" stroke="#64FF03" stroke-width="3" stroke-linecap="round"/>
<path d="M75.1719 17.9083C74.1175 20.8382 73.4262 23.8625 72.2918 26.7782C71.546 28.6951 70.7041 30.5902 69.8173 32.4471C68.9706 34.2201 68.4148 36.0823 67.6462 37.9004" stroke="#64FF03" stroke-width="3" stroke-linecap="round"/>
<path d="M81.7861 78.7217C82.4035 81.7737 83.3803 84.7181 83.922 87.7995C84.2781 89.8254 84.5406 91.8823 84.745 93.93C84.9402 95.885 85.4304 97.7655 85.7158 99.7187" stroke="#64FF03" stroke-width="3" stroke-linecap="round"/>
<path d="M174.786 71.7217C175.404 74.7737 176.38 77.7181 176.922 80.7995C177.278 82.8254 177.541 84.8823 177.745 86.93C177.94 88.885 178.43 90.7655 178.716 92.7187" stroke="#64FF03" stroke-width="3" stroke-linecap="round"/>
<path d="M242.574 78.8917C244.666 81.1974 247.013 83.2268 249.055 85.5965C250.398 87.1546 251.677 88.7872 252.901 90.4415C254.069 92.0211 255.453 93.3856 256.698 94.9173" stroke="#64FF03" stroke-width="3" stroke-linecap="round"/>
<path d="M11.0457 61.4015C12.1959 58.5785 14.7723 56.5194 17.6752 55.8107C21.1057 54.9733 24.7294 55.5212 28.2291 55.3065C29.3327 55.2389 30.2943 56.5408 30.8815 57.3846C35.0573 63.3844 27.1591 67.8642 23.4015 70.8098" stroke="#64FF03" stroke-width="3" stroke-linecap="round"/>
<path d="M222.385 15.3351C225.28 14.3827 228.518 15.0116 230.938 16.7641C233.799 18.835 235.728 21.9506 238.159 24.4777C238.925 25.2746 238.557 26.8505 238.294 27.8445C236.428 34.9123 227.899 31.7972 223.221 30.8426" stroke="#64FF03" stroke-width="3" stroke-linecap="round"/>
<path d="M74.8634 17.1438C76.2751 16.6703 77.8583 16.9682 79.0455 17.8173C80.4485 18.8206 81.4001 20.3369 82.5945 21.5643C82.9711 21.9513 82.7954 22.7221 82.6701 23.2084C81.779 26.6659 77.6041 25.1688 75.3163 24.7159" stroke="#64FF03" stroke-width="3" stroke-linecap="round"/>
<path d="M81.1259 78.2278C82.0876 77.0911 83.5958 76.525 85.0512 76.6355C86.7711 76.7661 88.3709 77.5693 90.0286 77.9996C90.5513 78.1353 90.8007 78.8855 90.9456 79.3663C91.9762 82.7849 87.63 83.6692 85.439 84.468" stroke="#64FF03" stroke-width="3" stroke-linecap="round"/>
<path d="M174.126 71.2278C175.088 70.0911 176.596 69.525 178.051 69.6355C179.771 69.7661 181.371 70.5693 183.029 70.9996C183.551 71.1353 183.801 71.8855 183.946 72.3663C184.976 75.7849 180.63 76.6692 178.439 77.468" stroke="#64FF03" stroke-width="3" stroke-linecap="round"/>
<path d="M241.754 78.8054C241.998 77.3366 243.004 76.0783 244.311 75.4282C245.855 74.6599 247.64 74.531 249.285 74.052C249.803 73.901 250.402 74.4178 250.772 74.7566C253.407 77.1658 250.127 80.1502 248.653 81.9581" stroke="#64FF03" stroke-width="3" stroke-linecap="round"/>
<path d="M22.9071 91.4318C26.2483 89.7302 29.2084 87.2914 32.3237 85.2371C34.8244 83.5881 37.4052 82.3281 40.1345 81.1265" stroke="#64FF03" stroke-width="3" stroke-linecap="round"/>
<path d="M207.19 43.8245C210.651 45.2676 214.426 45.9429 218.009 46.9855C220.886 47.8224 223.517 48.9723 226.201 50.2731" stroke="#64FF03" stroke-width="3" stroke-linecap="round"/>
<path d="M67.5228 31.1025C69.2173 31.7975 71.0633 32.1165 72.8164 32.6155C74.2236 33.016 75.5123 33.5701 76.8267 34.1979" stroke="#64FF03" stroke-width="3" stroke-linecap="round"/>
<path d="M82.0857 93.9698C83.895 93.6856 85.6389 93.0013 87.3967 92.5191C88.8076 92.1321 90.1969 91.9378 91.6463 91.7931" stroke="#64FF03" stroke-width="3" stroke-linecap="round"/>
<path d="M175.086 86.9698C176.895 86.6856 178.639 86.0013 180.397 85.5191C181.808 85.1321 183.197 84.9378 184.646 84.7931" stroke="#64FF03" stroke-width="3" stroke-linecap="round"/>
<path d="M250.637 91.8371C252.046 90.6668 253.193 89.1862 254.457 87.8722C255.471 86.8174 256.565 85.9393 257.736 85.073" stroke="#64FF03" stroke-width="3" stroke-linecap="round"/>
<g filter="url(#filter0_f_2021_1486)">
<path d="M137.006 13.4458V106.999" stroke="#64FF03" stroke-width="3" stroke-linecap="round"/>
<path d="M135.172 12.2229C130.945 12.6926 129.481 19.6545 126 21.3948" stroke="#64FF03" stroke-width="3" stroke-linecap="round"/>
<path d="M136.395 11C138.716 13.089 141.206 14.5882 143.426 16.8089C144.973 18.3559 145.991 20.9957 148.012 22.0063" stroke="#64FF03" stroke-width="3" stroke-linecap="round"/>
<path d="M12.6445 61.9431C15.7835 67.4917 19.5536 72.6028 22.5637 78.2566C24.5428 81.9738 26.3593 85.8109 28.0569 89.6666C29.6778 93.3481 31.8256 96.6972 33.6208 100.318" stroke="#64FF03" stroke-width="3" stroke-linecap="round"/>
<path d="M223.007 16.904C220.814 22.8896 219.362 29.0727 217.005 35.0283C215.455 38.9439 213.708 42.8134 211.871 46.6043C210.116 50.224 208.956 54.0297 207.361 57.7426" stroke="#64FF03" stroke-width="3" stroke-linecap="round"/>
<path d="M75.1719 17.9083C74.1175 20.8382 73.4262 23.8625 72.2918 26.7782C71.546 28.6951 70.7041 30.5902 69.8173 32.4471C68.9706 34.2201 68.4148 36.0823 67.6462 37.9004" stroke="#64FF03" stroke-width="3" stroke-linecap="round"/>
<path d="M81.7861 78.7217C82.4035 81.7737 83.3803 84.7181 83.922 87.7995C84.2781 89.8254 84.5406 91.8823 84.745 93.93C84.9402 95.885 85.4304 97.7655 85.7158 99.7187" stroke="#64FF03" stroke-width="3" stroke-linecap="round"/>
<path d="M174.786 71.7217C175.404 74.7737 176.38 77.7181 176.922 80.7995C177.278 82.8254 177.541 84.8823 177.745 86.93C177.94 88.885 178.43 90.7655 178.716 92.7187" stroke="#64FF03" stroke-width="3" stroke-linecap="round"/>
<path d="M242.574 78.8917C244.666 81.1974 247.013 83.2268 249.055 85.5965C250.398 87.1546 251.677 88.7872 252.901 90.4415C254.069 92.0211 255.453 93.3856 256.698 94.9173" stroke="#64FF03" stroke-width="3" stroke-linecap="round"/>
<path d="M11.0457 61.4015C12.1959 58.5785 14.7723 56.5194 17.6752 55.8107C21.1057 54.9733 24.7294 55.5212 28.2291 55.3065C29.3327 55.2389 30.2943 56.5408 30.8815 57.3846C35.0573 63.3844 27.1591 67.8642 23.4015 70.8098" stroke="#64FF03" stroke-width="3" stroke-linecap="round"/>
<path d="M222.385 15.3351C225.28 14.3827 228.518 15.0116 230.938 16.7641C233.799 18.835 235.728 21.9506 238.159 24.4777C238.925 25.2746 238.557 26.8505 238.294 27.8445C236.428 34.9123 227.899 31.7972 223.221 30.8426" stroke="#64FF03" stroke-width="3" stroke-linecap="round"/>
<path d="M74.8634 17.1438C76.2751 16.6703 77.8583 16.9682 79.0455 17.8173C80.4485 18.8206 81.4001 20.3369 82.5945 21.5643C82.9711 21.9513 82.7954 22.7221 82.6701 23.2084C81.779 26.6659 77.6041 25.1688 75.3163 24.7159" stroke="#64FF03" stroke-width="3" stroke-linecap="round"/>
<path d="M81.1259 78.2278C82.0876 77.0911 83.5958 76.525 85.0512 76.6355C86.7711 76.7661 88.3709 77.5693 90.0286 77.9996C90.5513 78.1353 90.8007 78.8855 90.9456 79.3663C91.9762 82.7849 87.63 83.6692 85.439 84.468" stroke="#64FF03" stroke-width="3" stroke-linecap="round"/>
<path d="M174.126 71.2278C175.088 70.0911 176.596 69.525 178.051 69.6355C179.771 69.7661 181.371 70.5693 183.029 70.9996C183.551 71.1353 183.801 71.8855 183.946 72.3663C184.976 75.7849 180.63 76.6692 178.439 77.468" stroke="#64FF03" stroke-width="3" stroke-linecap="round"/>
<path d="M241.754 78.8054C241.998 77.3366 243.004 76.0783 244.311 75.4282C245.855 74.6599 247.64 74.531 249.285 74.052C249.803 73.901 250.402 74.4178 250.772 74.7566C253.407 77.1658 250.127 80.1502 248.653 81.9581" stroke="#64FF03" stroke-width="3" stroke-linecap="round"/>
<path d="M22.9071 91.4318C26.2483 89.7302 29.2084 87.2914 32.3237 85.2371C34.8244 83.5881 37.4052 82.3281 40.1345 81.1265" stroke="#64FF03" stroke-width="3" stroke-linecap="round"/>
<path d="M207.19 43.8245C210.651 45.2676 214.426 45.9429 218.009 46.9855C220.886 47.8224 223.517 48.9723 226.201 50.2731" stroke="#64FF03" stroke-width="3" stroke-linecap="round"/>
<path d="M67.5228 31.1025C69.2173 31.7975 71.0633 32.1165 72.8164 32.6155C74.2236 33.016 75.5123 33.5701 76.8267 34.1979" stroke="#64FF03" stroke-width="3" stroke-linecap="round"/>
<path d="M82.0857 93.9698C83.895 93.6856 85.6389 93.0013 87.3967 92.5191C88.8076 92.1321 90.1969 91.9378 91.6463 91.7931" stroke="#64FF03" stroke-width="3" stroke-linecap="round"/>
<path d="M175.086 86.9698C176.895 86.6856 178.639 86.0013 180.397 85.5191C181.808 85.1321 183.197 84.9378 184.646 84.7931" stroke="#64FF03" stroke-width="3" stroke-linecap="round"/>
<path d="M250.637 91.8371C252.046 90.6668 253.193 89.1862 254.457 87.8722C255.471 86.8174 256.565 85.9393 257.736 85.073" stroke="#64FF03" stroke-width="3" stroke-linecap="round"/>
</g>
<defs>
<filter id="filter0_f_2021_1486" x="0.645411" y="0.6" width="267.49" height="116.799" filterUnits="userSpaceOnUse" color-interpolation-filters="sRGB">
<feFlood flood-opacity="0" result="BackgroundImageFix"/>
<feBlend mode="normal" in="SourceGraphic" in2="BackgroundImageFix" result="shape"/>
<feGaussianBlur stdDeviation="4.45" result="effect1_foregroundBlur_2021_1486"/>
</filter>
</defs>
</svg>
