<svg width="310" height="106" viewBox="0 0 310 106" fill="none" xmlns="http://www.w3.org/2000/svg">
<path d="M182 86.991C171.48 86.991 160.961 86.991 150.441 86.991C145.836 86.991 136.776 87.3106 133.193 84.1405C128.722 80.1855 128.302 73.1397 126.559 68.1273C124.191 61.3188 124 54.0576 124 47" stroke="#64FF03" stroke-width="3" stroke-linecap="round"/>
<path d="M171 89C180.199 89 186.451 87.6132 188.827 78.7333C190.752 71.5391 190.32 63.9803 190.32 56.6303C190.32 55.0608 190.486 47.6883 192 47" stroke="#64FF03" stroke-width="3" stroke-linecap="round"/>
<path d="M124 44.7128C124.029 47.0531 123.85 50.4451 126.598 51.3083C128.575 51.9294 130.839 51.8418 132.883 51.8418C135.644 51.8418 138.656 51.867 141.289 50.911C143.233 50.2055 144.625 48.9803 144.625 46.881C144.625 45.5374 146.073 48.7106 146.315 49.0266C148.529 51.9242 151.46 53.0196 155.062 52.9997C157.588 52.9858 160.214 51.8132 161.12 49.299C161.641 47.8535 161.27 45.1867 162.345 44.0317C162.757 43.589 165.367 47.9234 165.612 48.3C166.584 49.7956 167.377 51.0113 169.22 51.3423C170.982 51.6588 172.368 51.1452 173.871 50.2299C175.729 49.0984 177.642 47.6775 178.659 45.6891C178.705 45.5976 179.028 44.0169 179.135 44.4744C179.542 46.2031 179.423 48.017 180.111 49.685C180.659 51.0147 182.229 50.8032 183.446 50.5818C186.967 49.9412 189.865 47.2548 192 44.5085" stroke="#64FF03" stroke-width="3" stroke-linecap="round"/>
<path d="M192 44.9373C193.405 46.5097 194.566 50.0805 197.168 49.9986C198.549 49.9551 198.929 47.1487 199.173 46.187C199.367 45.4252 199.811 44.7611 200 44" stroke="#64FF03" stroke-width="3" stroke-linecap="round"/>
<path d="M123.785 45.46C123.785 46.6833 124.599 51.2588 123.06 51.8518C121.279 52.5384 118.717 50.6881 117.824 49.4128C116.494 47.5156 116 45.2065 116 43" stroke="#64FF03" stroke-width="3" stroke-linecap="round"/>
<path d="M150.756 59.9719C150.756 62.3818 150.48 64.9606 150.016 67.3327C149.879 68.0332 150.645 68.4163 151.211 68.806C151.63 69.095 151.975 69.3838 152.374 69.6984C153.051 70.2334 154.956 69.8946 155.711 69.8901C158.283 69.8749 160.757 69.3939 163.309 69.2672C164.626 69.2018 165.942 69.2208 167.259 69.1295C167.987 69.079 168.703 68.9602 169.427 68.8779C169.759 68.8402 170.219 68.8804 170.534 68.7461C170.857 68.6083 170.909 68.2114 170.951 67.9256C171.163 66.4753 170.641 64.751 170.262 63.3618C169.994 62.3804 169.556 61.2782 168.732 60.5828C167.529 59.5676 165.338 59.5326 163.865 59.373C160.944 59.0565 158.004 58.9878 155.066 59.0017C154.15 59.006 153.34 59.1172 152.462 59.3251" stroke="#64FF03" stroke-width="3" stroke-linecap="round"/>
<path d="M143 71C145.975 70.3315 148.967 70.3043 151.989 70.2857C156.474 70.2582 160.971 70.146 165.452 69.9206C169.651 69.7094 173.791 69 178 69" stroke="#64FF03" stroke-width="3" stroke-linecap="round"/>
<path d="M49 94C64.6853 88.0315 80.964 83.0171 97 78" stroke="#64FF03" stroke-width="3" stroke-linecap="round"/>
<path d="M38 52C53.9403 52.846 70.0463 53 86 53" stroke="#64FF03" stroke-width="3" stroke-linecap="round"/>
<path d="M47 16C54.8645 16.9866 60.9267 21.0191 67.9506 24.137C74.2957 26.9537 81.1274 28.1187 88 29" stroke="#64FF03" stroke-width="3" stroke-linecap="round"/>
<path d="M267 23C256.246 25.0071 245.012 27.7955 235 32" stroke="#64FF03" stroke-width="3" stroke-linecap="round"/>
<path d="M228 56H267" stroke="#64FF03" stroke-width="3" stroke-linecap="round"/>
<path d="M266 86C256.307 86 247.437 81.2327 238.724 77.8667C232.762 75.5636 226.489 72.7599 220 72" stroke="#64FF03" stroke-width="3" stroke-linecap="round"/>
<path d="M229 33C229 28.0593 229.219 24.4064 235 21" stroke="#64FF03" stroke-width="3" stroke-linecap="round"/>
<path d="M228 36C229.589 35.0464 233.36 35.3935 235.247 35.3333C237.834 35.2509 240.418 35.1352 243 35" stroke="#64FF03" stroke-width="3" stroke-linecap="round"/>
<path d="M226 56C226.754 55.9275 227.319 54.759 227.833 54.3761C230.157 52.6464 233.06 51.8794 236 51" stroke="#64FF03" stroke-width="3" stroke-linecap="round"/>
<path d="M227 59C230.667 59.5378 233.947 61.8629 237 64" stroke="#64FF03" stroke-width="3" stroke-linecap="round"/>
<path d="M217 71C219.433 70.3941 221.765 69.9461 224 69" stroke="#64FF03" stroke-width="3" stroke-linecap="round"/>
<path d="M216 74C218.33 76.3517 220.407 79.024 223 81" stroke="#64FF03" stroke-width="3" stroke-linecap="round"/>
<path d="M97 80C92.3629 77.9054 87.8862 77.4637 83 77" stroke="#64FF03" stroke-width="3" stroke-linecap="round"/>
<path d="M94 81C92.3864 83.2013 90.9215 83.945 88 85" stroke="#64FF03" stroke-width="3" stroke-linecap="round"/>
<path d="M82 50C77.215 48.6479 72.7143 45.6954 68 44" stroke="#64FF03" stroke-width="3" stroke-linecap="round"/>
<path d="M86 54C81.0307 56.5509 76.584 58.4644 71 60" stroke="#64FF03" stroke-width="3" stroke-linecap="round"/>
<path d="M87 26C83.9349 21.7738 80.2242 18.4698 76 15" stroke="#64FF03" stroke-width="3" stroke-linecap="round"/>
<path d="M87 31C86.3835 31.3724 85.5717 31.3308 84.8874 31.4333C82.8251 31.7423 80.7854 32.0212 78.7072 32.2C74.4295 32.5681 70.2356 33.3111 66 34" stroke="#64FF03" stroke-width="3" stroke-linecap="round"/>
<path d="M116 42C116.502 41.3339 117.43 40.856 118.15 40.4425C119.779 39.5073 121.513 38.7138 123.191 37.8594C127.484 35.6736 131.55 33.0677 135.941 31.0598C140.874 28.8042 146.092 27.0973 151.044 24.9155C152.95 24.0758 155.067 23.6537 156.988 22.8547C157.951 22.4538 158.95 22.1638 160 22" stroke="#64FF03" stroke-width="3" stroke-linecap="round"/>
<path d="M198 43C197.414 42.4232 196.909 41.7705 196.379 41.1522C194.081 38.469 191.436 36.2515 188.425 34.2135C185.442 32.1942 182.261 30.4956 178.979 28.9108C176.419 27.675 174.024 26.201 171.515 24.888C169.289 23.723 166.955 22.6882 164.51 21.9528C163.034 21.5087 161.499 21.3381 160 21" stroke="#64FF03" stroke-width="3" stroke-linecap="round"/>
<path d="M27.7578 8.17002C28.999 7.15987 29.928 6.13437 29.9979 4.66068C30.0611 3.32807 28.7051 2.76811 27.3117 2.33911C25.9232 1.91161 23.8152 1.8549 22.4437 2.36225C21.5199 2.704 20.1865 3.46323 20.0776 4.32902C19.8041 6.50402 20.1167 9.17316 23.2777 9.88227C25.6462 10.4136 27.6318 9.06464 28.6306 7.47586" stroke="#64FF03" stroke-width="3" stroke-linecap="round"/>
<path d="M10.7578 43.9413C11.999 42.8049 12.928 41.6512 12.9979 39.9933C13.0611 38.4941 11.7051 37.8641 10.3117 37.3815C8.92323 36.9006 6.81517 36.8368 5.44372 37.4075C4.51993 37.792 3.18645 38.6461 3.0776 39.6202C2.80414 42.067 3.11673 45.0698 6.27769 45.8676C8.64624 46.4653 10.6318 44.9477 11.6306 43.1603" stroke="#64FF03" stroke-width="3" stroke-linecap="round"/>
<path d="M27.7578 86.17C28.999 85.1599 29.928 84.1344 29.9979 82.6607C30.0611 81.3281 28.7051 80.7681 27.3117 80.3391C25.9232 79.9116 23.8152 79.8549 22.4437 80.3622C21.5199 80.704 20.1865 81.4632 20.0776 82.329C19.8041 84.504 20.1167 87.1732 23.2777 87.8823C25.6462 88.4136 27.6318 87.0646 28.6306 85.4759" stroke="#64FF03" stroke-width="3" stroke-linecap="round"/>
<path d="M292.982 81.7125C294.099 80.4498 294.935 79.168 294.998 77.3258C295.055 75.6601 293.835 74.9601 292.581 74.4239C291.331 73.8895 289.434 73.8186 288.199 74.4528C287.368 74.88 286.168 75.829 286.07 76.9113C285.824 79.63 286.105 82.9665 288.95 83.8528C291.082 84.517 292.869 82.8308 293.768 80.8448" stroke="#64FF03" stroke-width="3" stroke-linecap="round"/>
<path d="M305.758 48.9413C306.999 47.8049 307.928 46.6512 307.998 44.9933C308.061 43.4941 306.705 42.8641 305.312 42.3815C303.923 41.9006 301.815 41.8368 300.444 42.4075C299.52 42.792 298.186 43.6461 298.078 44.6202C297.804 47.067 298.117 50.0698 301.278 50.8676C303.646 51.4653 305.632 49.9477 306.631 48.1603" stroke="#64FF03" stroke-width="3" stroke-linecap="round"/>
<path d="M292.982 18.17C294.099 17.1599 294.935 16.1344 294.998 14.6607C295.055 13.3281 293.835 12.7681 292.581 12.3391C291.331 11.9116 289.434 11.8549 288.199 12.3622C287.368 12.704 286.168 13.4632 286.07 14.329C285.824 16.504 286.105 19.1732 288.95 19.8823C291.082 20.4136 292.869 19.0646 293.768 17.4759" stroke="#64FF03" stroke-width="3" stroke-linecap="round"/>
<path d="M24 12L24 19" stroke="#64FF03" stroke-width="3" stroke-linecap="round"/>
<path d="M6 47L6 54" stroke="#64FF03" stroke-width="3" stroke-linecap="round"/>
<path d="M24 89L24 97" stroke="#64FF03" stroke-width="3" stroke-linecap="round"/>
<path d="M290 84L290 92" stroke="#64FF03" stroke-width="3" stroke-linecap="round"/>
<path d="M303 52L303 59" stroke="#64FF03" stroke-width="3" stroke-linecap="round"/>
<path d="M290 21L290 29" stroke="#64FF03" stroke-width="3" stroke-linecap="round"/>
<path d="M22 20C21.6833 21.8559 20.1787 23.4883 19.2263 24.9832C18.8052 25.6443 18.4378 26.3586 18 27" stroke="#64FF03" stroke-width="3" stroke-linecap="round"/>
<path d="M6 55C5.68332 56.5908 4.17866 57.99 3.22634 59.2713C2.80521 59.8379 2.4378 60.4502 2 61" stroke="#64FF03" stroke-width="3" stroke-linecap="round"/>
<path d="M22 98C21.6833 99.5908 20.1787 100.99 19.2263 102.271C18.8052 102.838 18.4378 103.45 18 104" stroke="#64FF03" stroke-width="3" stroke-linecap="round"/>
<path d="M290 93C289.604 94.8559 287.723 96.4883 286.533 97.9832C286.007 98.6443 285.547 99.3586 285 100" stroke="#64FF03" stroke-width="3" stroke-linecap="round"/>
<path d="M302 61C301.525 62.8559 299.268 64.4883 297.84 65.9832C297.208 66.6443 296.657 67.3586 296 68" stroke="#64FF03" stroke-width="3" stroke-linecap="round"/>
<path d="M290 30C289.604 31.8559 287.723 33.4883 286.533 34.9832C286.007 35.6443 285.547 36.3586 285 37" stroke="#64FF03" stroke-width="3" stroke-linecap="round"/>
<path d="M24 20C24.0976 20.82 24.5669 21.5113 24.7716 22.2815C24.9957 23.1247 25.1259 24.0089 25.3827 24.8309C25.6029 25.5355 25.7622 26.3343 26 27" stroke="#64FF03" stroke-width="3" stroke-linecap="round"/>
<path d="M6 55C6.24404 55.7028 7.41726 56.2954 7.92901 56.9556C8.4893 57.6783 8.81466 58.4362 9.45679 59.1407C10.0073 59.7447 10.4056 60.4294 11 61" stroke="#64FF03" stroke-width="3" stroke-linecap="round"/>
<path d="M24 98C24.0976 98.7028 24.5669 99.2954 24.7716 99.9556C24.9957 100.678 25.1259 101.436 25.3827 102.141C25.6029 102.745 25.7622 103.429 26 104" stroke="#64FF03" stroke-width="3" stroke-linecap="round"/>
<path d="M290 92C290.146 92.9371 290.85 93.7272 291.157 94.6074C291.494 95.5711 291.689 96.5816 292.074 97.521C292.404 98.3263 292.643 99.2392 293 100" stroke="#64FF03" stroke-width="3" stroke-linecap="round"/>
<path d="M303 60C303.146 60.9371 303.85 61.7272 304.157 62.6074C304.494 63.5711 304.689 64.5816 305.074 65.521C305.404 66.3263 305.643 67.2392 306 68" stroke="#64FF03" stroke-width="3" stroke-linecap="round"/>
<path d="M290 30C290.146 30.82 290.85 31.5113 291.157 32.2815C291.494 33.1247 291.689 34.0089 292.074 34.8309C292.404 35.5355 292.643 36.3343 293 37" stroke="#64FF03" stroke-width="3" stroke-linecap="round"/>
<path d="M22 15C21.8074 16.9922 18.6529 17.3114 18 19" stroke="#64FF03" stroke-width="3" stroke-linecap="round"/>
<path d="M5 49C4.85556 51.4903 2.48969 51.8892 2 54" stroke="#64FF03" stroke-width="3" stroke-linecap="round"/>
<path d="M22 91C21.8074 92.9922 18.6529 93.3114 18 95" stroke="#64FF03" stroke-width="3" stroke-linecap="round"/>
<path d="M289 87C288.807 88.9922 285.653 89.3114 285 91" stroke="#64FF03" stroke-width="3" stroke-linecap="round"/>
<path d="M302 55C301.711 56.9922 296.979 57.3114 296 59" stroke="#64FF03" stroke-width="3" stroke-linecap="round"/>
<path d="M289 24C288.807 26.4903 285.653 26.8892 285 29" stroke="#64FF03" stroke-width="3" stroke-linecap="round"/>
<path d="M24 15C25.1366 16.2208 26.138 17.3949 27.4491 18.5494C27.9426 18.984 28.741 19.4819 29 20" stroke="#64FF03" stroke-width="3" stroke-linecap="round"/>
<path d="M7 50C8.13659 51.2208 9.13796 52.3949 10.4491 53.5494C10.9426 53.984 11.741 54.4819 12 55" stroke="#64FF03" stroke-width="3" stroke-linecap="round"/>
<path d="M24 91C25.1366 92.7091 26.138 94.3529 27.4491 95.9691C27.9426 96.5775 28.741 97.2747 29 98" stroke="#64FF03" stroke-width="3" stroke-linecap="round"/>
<path d="M291 87C291.682 88.2208 292.283 89.3949 293.069 90.5494C293.366 90.984 293.845 91.4819 294 92" stroke="#64FF03" stroke-width="3" stroke-linecap="round"/>
<path d="M304 55C304.682 56.2208 305.283 57.3949 306.069 58.5494C306.366 58.984 306.845 59.4819 307 60" stroke="#64FF03" stroke-width="3" stroke-linecap="round"/>
<path d="M291 24C291.682 25.4649 292.283 26.8739 293.069 28.2593C293.366 28.7807 293.845 29.3783 294 30" stroke="#64FF03" stroke-width="3" stroke-linecap="round"/>
</svg>
