<svg width="289" height="117" viewBox="0 0 289 117" fill="none" xmlns="http://www.w3.org/2000/svg">
<path d="M22 88C21.4125 88.9966 20.4928 89.8531 19.6176 90.7621C17.727 92.7257 16.9888 95.0179 16.1765 97.2128C15.5801 98.824 15.1954 100.479 14.5294 102.078C14.1211 103.058 13.9334 104.152 13 105" stroke="#64FF03" stroke-width="3" stroke-linecap="round"/>
<path d="M257 67C255.629 69.1104 253.483 70.9242 251.441 72.8491C247.03 77.0074 245.307 81.8614 243.412 86.5094C242.02 89.9214 241.122 93.4265 239.569 96.8113C238.616 98.8868 238.178 101.204 236 103" stroke="#64FF03" stroke-width="3" stroke-linecap="round"/>
<path d="M23 89C23.3028 91.6697 24.8723 94.3984 25.7469 97.0272C26.2501 98.5397 26.8755 100.042 27.3827 101.551C27.6566 102.366 27.5349 103.231 28 104" stroke="#64FF03" stroke-width="3" stroke-linecap="round"/>
<path d="M258 68C258.666 74.0512 262.119 80.2363 264.043 86.195C265.15 89.6233 266.526 93.0283 267.642 96.449C268.245 98.2963 267.977 100.257 269 102" stroke="#64FF03" stroke-width="3" stroke-linecap="round"/>
<path d="M23 89C23 85.3918 23 81.7909 23 78.1844C23 76.8688 23 75.2574 23 74" stroke="#64FF03" stroke-width="3" stroke-linecap="round"/>
<path d="M257 67C257 59.3025 257.668 51.6206 257.668 43.9267C257.668 41.1202 258.753 37.6824 257 35" stroke="#64FF03" stroke-width="3" stroke-linecap="round"/>
<path d="M22 74C21.7358 75.5594 19.5391 77.1074 18.142 78.3443C17.1509 79.2216 16.4196 80.1785 15.3951 81.0492C14.2751 82.001 13.3982 83.1748 12 84" stroke="#64FF03" stroke-width="3" stroke-linecap="round"/>
<path d="M255 36C254.445 39.2748 249.832 42.5256 246.898 45.123C244.817 46.9653 243.281 48.9748 241.13 50.8033C238.778 52.8021 236.936 55.2671 234 57" stroke="#64FF03" stroke-width="3" stroke-linecap="round"/>
<path d="M23 74C23.1984 75.2787 25.4221 76.6136 26.4667 77.7153C27.3162 78.6113 27.9448 79.5025 28.6 80.441C29.1525 81.2323 29.5554 82.1639 30.2593 82.9063C30.5897 83.2548 31 83.5418 31 84" stroke="#64FF03" stroke-width="3" stroke-linecap="round"/>
<path d="M259 36C259.446 38.8132 264.45 41.75 266.8 44.1736C268.711 46.1448 270.126 48.1055 271.6 50.1701C272.843 51.9111 273.75 53.9607 275.333 55.5938C276.077 56.3606 277 56.992 277 58" stroke="#64FF03" stroke-width="3" stroke-linecap="round"/>
<path d="M23.2976 74C24.7812 73.9273 26.45 72.9962 27.7465 72.3472C28.9908 71.7243 29.9953 71.312 30.4446 69.8989C30.8165 68.7297 31.1859 67.4474 30.8958 66.2044C30.6676 65.2265 29.8277 64.6369 29.3437 63.818C29.0404 63.3049 28.501 62.2474 27.7735 62.2271C26.6048 62.1944 25.2798 61.8246 24.1098 62.1033C22.0375 62.5971 20.6485 63.7573 19.6881 65.6388C19.0786 66.8326 18.5479 69.2231 19.5978 70.3055C20.4686 71.2033 22.3171 72.4091 23.6225 72.4091" stroke="#64FF03" stroke-width="3" stroke-linecap="round"/>
<path d="M257.312 34C260.526 33.8668 264.142 32.1597 266.951 30.9699C269.647 29.8279 271.823 29.072 272.797 26.4814C273.602 24.3378 274.403 21.9869 273.774 19.7081C273.28 17.9153 271.46 16.8343 270.411 15.333C269.754 14.3924 268.586 12.4537 267.009 12.4163C264.477 12.3564 261.606 11.6785 259.071 12.1895C254.581 13.0946 251.572 15.2217 249.491 18.6711C248.17 20.8598 247.021 25.2423 249.295 27.2267C251.182 28.8726 255.187 31.0833 258.015 31.0833" stroke="#64FF03" stroke-width="3" stroke-linecap="round"/>
<path d="M57 84C67.9394 80.9326 79.5167 78.7019 90.3779 75.4773C98.4159 73.0908 105.377 70.0592 112.836 67.2071C126.396 62.0222 141.145 58.578 155.333 54.202C174.585 48.2637 193.276 41.4545 211 34" stroke="#64FF03" stroke-width="3" stroke-linecap="round"/>
<path d="M203 45C206.069 42.6221 208.481 39.4041 210.984 36.7101C212.076 35.5342 213 34.3993 213 33" stroke="#64FF03" stroke-width="3" stroke-linecap="round"/>
<path d="M212.748 33.134C206.938 31.763 200.825 30.9087 195 29.9733" stroke="#64FF03" stroke-width="3" stroke-linecap="round"/>
<g filter="url(#filter0_f_2021_1485)">
<path d="M22 88C21.4125 88.9966 20.4928 89.8531 19.6176 90.7621C17.727 92.7257 16.9888 95.0179 16.1765 97.2128C15.5801 98.824 15.1954 100.479 14.5294 102.078C14.1211 103.058 13.9334 104.152 13 105" stroke="#64FF03" stroke-width="3" stroke-linecap="round"/>
<path d="M257 67C255.629 69.1104 253.483 70.9242 251.441 72.8491C247.03 77.0074 245.307 81.8614 243.412 86.5094C242.02 89.9214 241.122 93.4265 239.569 96.8113C238.616 98.8868 238.178 101.204 236 103" stroke="#64FF03" stroke-width="3" stroke-linecap="round"/>
<path d="M23 89C23.3028 91.6697 24.8723 94.3984 25.7469 97.0272C26.2501 98.5397 26.8755 100.042 27.3827 101.551C27.6566 102.366 27.5349 103.231 28 104" stroke="#64FF03" stroke-width="3" stroke-linecap="round"/>
<path d="M258 68C258.666 74.0512 262.119 80.2363 264.043 86.195C265.15 89.6233 266.526 93.0283 267.642 96.449C268.245 98.2963 267.977 100.257 269 102" stroke="#64FF03" stroke-width="3" stroke-linecap="round"/>
<path d="M23 89C23 85.3918 23 81.7909 23 78.1844C23 76.8688 23 75.2574 23 74" stroke="#64FF03" stroke-width="3" stroke-linecap="round"/>
<path d="M257 67C257 59.3025 257.668 51.6206 257.668 43.9267C257.668 41.1202 258.753 37.6824 257 35" stroke="#64FF03" stroke-width="3" stroke-linecap="round"/>
<path d="M22 74C21.7358 75.5594 19.5391 77.1074 18.142 78.3443C17.1509 79.2216 16.4196 80.1785 15.3951 81.0492C14.2751 82.001 13.3982 83.1748 12 84" stroke="#64FF03" stroke-width="3" stroke-linecap="round"/>
<path d="M255 36C254.445 39.2748 249.832 42.5256 246.898 45.123C244.817 46.9653 243.281 48.9748 241.13 50.8033C238.778 52.8021 236.936 55.2671 234 57" stroke="#64FF03" stroke-width="3" stroke-linecap="round"/>
<path d="M23 74C23.1984 75.2787 25.4221 76.6136 26.4667 77.7153C27.3162 78.6113 27.9448 79.5025 28.6 80.441C29.1525 81.2323 29.5554 82.1639 30.2593 82.9063C30.5897 83.2548 31 83.5418 31 84" stroke="#64FF03" stroke-width="3" stroke-linecap="round"/>
<path d="M259 36C259.446 38.8132 264.45 41.75 266.8 44.1736C268.711 46.1448 270.126 48.1055 271.6 50.1701C272.843 51.9111 273.75 53.9607 275.333 55.5938C276.077 56.3606 277 56.992 277 58" stroke="#64FF03" stroke-width="3" stroke-linecap="round"/>
<path d="M23.2976 74C24.7812 73.9273 26.45 72.9962 27.7465 72.3472C28.9908 71.7243 29.9953 71.312 30.4446 69.8989C30.8165 68.7297 31.1859 67.4474 30.8958 66.2044C30.6676 65.2265 29.8277 64.6369 29.3437 63.818C29.0404 63.3049 28.501 62.2474 27.7735 62.2271C26.6048 62.1944 25.2798 61.8246 24.1098 62.1033C22.0375 62.5971 20.6485 63.7573 19.6881 65.6388C19.0786 66.8326 18.5479 69.2231 19.5978 70.3055C20.4686 71.2033 22.3171 72.4091 23.6225 72.4091" stroke="#64FF03" stroke-width="3" stroke-linecap="round"/>
<path d="M257.312 34C260.526 33.8668 264.142 32.1597 266.951 30.9699C269.647 29.8279 271.823 29.072 272.797 26.4814C273.602 24.3378 274.403 21.9869 273.774 19.7081C273.28 17.9153 271.46 16.8343 270.411 15.333C269.754 14.3924 268.586 12.4537 267.009 12.4163C264.477 12.3564 261.606 11.6785 259.071 12.1895C254.581 13.0946 251.572 15.2217 249.491 18.6711C248.17 20.8598 247.021 25.2423 249.295 27.2267C251.182 28.8726 255.187 31.0833 258.015 31.0833" stroke="#64FF03" stroke-width="3" stroke-linecap="round"/>
<path d="M57 84C67.9394 80.9326 79.5167 78.7019 90.3779 75.4773C98.4159 73.0908 105.377 70.0592 112.836 67.2071C126.396 62.0222 141.145 58.578 155.333 54.202C174.585 48.2637 193.276 41.4545 211 34" stroke="#64FF03" stroke-width="3" stroke-linecap="round"/>
<path d="M203 45C206.069 42.6221 208.481 39.4041 210.984 36.7101C212.076 35.5342 213 34.3993 213 33" stroke="#64FF03" stroke-width="3" stroke-linecap="round"/>
<path d="M212.748 33.134C206.938 31.763 200.825 30.9087 195 29.9733" stroke="#64FF03" stroke-width="3" stroke-linecap="round"/>
</g>
<defs>
<filter id="filter0_f_2021_1485" x="0.4" y="0.399939" width="288.2" height="116.2" filterUnits="userSpaceOnUse" color-interpolation-filters="sRGB">
<feFlood flood-opacity="0" result="BackgroundImageFix"/>
<feBlend mode="normal" in="SourceGraphic" in2="BackgroundImageFix" result="shape"/>
<feGaussianBlur stdDeviation="5.05" result="effect1_foregroundBlur_2021_1485"/>
</filter>
</defs>
</svg>
