<svg width="376" height="141" viewBox="0 0 376 141" fill="none" xmlns="http://www.w3.org/2000/svg">
<path d="M1.28979 8.71463C12.3479 1.60995 28.0269 4.04485 40.4 4.04485C47.3396 4.04485 53.8774 3.14881 59.5658 7.93633C63.6577 11.3802 67.1501 15.5748 72.9342 15.7193C78.3456 15.8545 84.0428 16.1174 89.3311 14.8978C97.3102 13.0575 105.536 13.9337 113.429 11.6549C119.247 9.97519 125.572 7.20454 131.729 8.36872C135.717 9.12265 138.152 12.6887 141.94 11.0063C149.209 7.77749 156.522 7.03114 164.393 7.15803C174.767 7.32525 184.044 12.5888 194.332 13.2979C207.891 14.2325 219.683 8.76189 232.923 7.15803C241.106 6.16666 248.71 5.61831 256.761 6.42298C261.468 6.8934 265.957 7.15803 270.735 7.15803C279.14 7.15803 285.59 4.79977 293.319 1.70996" stroke="#0F131A" stroke-width="1.88406" stroke-linecap="round"/>
<path d="M1.28979 132.121C12.3479 125.016 28.0269 127.451 40.4 127.451C47.3396 127.451 53.8774 126.555 59.5658 131.343C63.6577 134.786 67.1501 138.981 72.9342 139.126C78.3456 139.261 84.0428 139.524 89.3311 138.304C97.3102 136.464 105.536 137.34 113.429 135.061C119.247 133.381 125.572 130.611 131.729 131.775C135.717 132.529 138.152 136.095 141.94 134.413C149.209 131.184 156.522 130.437 164.393 130.564C174.767 130.732 184.044 135.995 194.332 136.704C207.891 137.639 219.683 132.168 232.923 130.564C241.106 129.573 248.71 129.025 256.761 129.829C261.468 130.3 265.957 130.564 270.735 130.564C279.14 130.564 285.59 128.206 293.319 125.116" stroke="#0F131A" stroke-width="1.88406" stroke-linecap="round"/>
<path d="M3.17383 69.4218C4.95573 69.4218 6.67175 69.2071 8.42108 68.835C14.4701 67.5484 20.4623 66.6985 26.6336 66.3277C33.6072 65.9087 40.6398 65.9053 47.5972 66.5945C52.9741 67.1271 58.0848 68.5447 63.3899 69.4218C69.7933 70.4805 75.5631 68.4666 81.9081 67.7947C93.5485 66.5621 105.85 68.8836 117.34 70.8888C126.447 72.4782 135.626 73.4531 144.289 69.3151C148.152 67.4702 151.856 64.9099 156.159 64.3539C161.011 63.7271 165.911 64.8387 170.526 66.3011C178.914 68.9594 187.615 69.4068 196.303 68.4616C202.992 67.7339 207.947 67.3075 212.707 72.5692C214.485 74.5341 218.969 71.9811 221.037 71.609C232.062 69.6248 243.29 68.166 254.482 67.9815C256.694 67.945 259.112 67.7073 261.334 67.4747C263.609 67.2364 265.908 66.1069 268.135 65.5809C275.66 63.803 283.244 62.023 290.881 60.8598C294.162 60.3601 298.426 59.4584 301.656 60.8864C306.964 63.2334 311.936 65.9597 317.551 65.5542C321.149 65.2943 324.176 63.8724 327.332 62.2201C328.44 61.6399 329.793 60.7797 331 60.7797" stroke="#0F131A" stroke-width="1.88406" stroke-linecap="round"/>
<path d="M343 61.5757C346.85 61.1739 348.232 61.2256 351.582 63.7506C355.454 66.6684 361.39 67.6016 366.05 66.6291C367.284 66.3716 368.192 65.6056 369.483 65.6056C370.313 65.6056 370.92 66.1813 371.69 66.1813C372.568 66.1813 374.418 61.8094 375 61" stroke="#0F131A" stroke-width="2" stroke-linecap="round"/>
</svg>
