<svg width="560" height="244" viewBox="0 0 560 244" fill="none" xmlns="http://www.w3.org/2000/svg">
<rect width="560" height="244" rx="8" fill="#E9EDF4"/>
<circle cx="91.8406" cy="65.2468" r="18.3696" fill="black" stroke="black" stroke-width="0.942029"/>
<circle cx="91.8406" cy="124.594" r="18.3696" fill="black" stroke="black" stroke-width="0.942029"/>
<circle cx="91.8406" cy="187.71" r="18.3696" fill="black" stroke="black" stroke-width="0.942029"/>
<path d="M73 63.2929C74.2078 63.0794 75.4011 63.7626 76.5052 64.1544C79.3449 65.1621 82.2588 65.9745 85.0032 67.2294C86.7406 68.0239 88.4842 69.0607 89.8491 70.405C90.2313 70.7814 90.567 71.2324 90.5834 71.7821C90.5944 72.1506 90.9231 70.6598 90.9665 70.5245C91.892 67.6379 93.6876 65.0207 95.4485 62.5761C100.863 55.0594 106.565 47.544 113.651 41.4662C117.089 38.5173 120.823 35.964 124.818 33.8007C128.174 31.9834 131.611 30.742 135.174 29.4492" stroke="#52FF00" stroke-width="5.65217" stroke-linecap="round"/>
<path d="M73 122.641C74.2078 122.427 75.4011 123.11 76.5052 123.502C79.3449 124.51 82.2588 125.322 85.0032 126.577C86.7406 127.372 88.4842 128.408 89.8491 129.753C90.2313 130.129 90.567 130.58 90.5834 131.13C90.5944 131.498 90.9231 130.007 90.9665 129.872C91.892 126.986 93.6876 124.368 95.4485 121.924C100.863 114.407 106.565 106.892 113.651 100.814C117.089 97.865 120.823 95.3116 124.818 93.1484C128.174 91.3311 131.611 90.0896 135.174 88.7969" stroke="#52FF00" stroke-width="5.65217" stroke-linecap="round"/>
<path d="M73 185.757C74.2078 185.543 75.4011 186.227 76.5052 186.618C79.3449 187.626 82.2588 188.438 85.0032 189.693C86.7406 190.488 88.4842 191.525 89.8491 192.869C90.2313 193.245 90.567 193.696 90.5834 194.246C90.5944 194.614 90.9231 193.124 90.9665 192.988C91.892 190.102 93.6876 187.485 95.4485 185.04C100.863 177.523 106.565 170.008 113.651 163.93C117.089 160.981 120.823 158.428 124.818 156.265C128.174 154.447 131.611 153.206 135.174 151.913" stroke="#52FF00" stroke-width="5.65217" stroke-linecap="round"/>
</svg>
