<svg width="184" height="25" viewBox="0 0 184 25" fill="none" xmlns="http://www.w3.org/2000/svg">
<path d="M1.9873 13H181.753" stroke="#0F131A" stroke-width="2.67364" stroke-linecap="round"/>
<path d="M182.016 12.5649C181.794 12.2105 181.389 11.7736 181.093 11.4559C180.034 10.3178 178.939 9.20745 177.654 8.32092C176.906 7.80429 176.129 7.35403 175.34 6.9027C174.164 6.22915 173.206 5.41873 172.189 4.50346C171.457 3.8436 170.717 3.18577 170.019 2.4881C169.915 2.3839 169.792 2.32053 169.731 2.2002" stroke="#0F131A" stroke-width="2.67364" stroke-linecap="round"/>
<path d="M182.016 13.2363C181.825 13.2839 181.507 13.9556 181.365 14.1107C180.308 15.2638 178.924 16.0364 177.665 16.9312C176.545 17.727 175.515 18.6927 174.349 19.4157C173.773 19.7728 173.178 20.2312 172.52 20.4287C170.956 20.8978 169.792 22.3317 168.484 23.3131" stroke="#0F131A" stroke-width="2.67364" stroke-linecap="round"/>
</svg>
