<svg width="560" height="270" viewBox="0 0 560 270" fill="none" xmlns="http://www.w3.org/2000/svg">
<rect width="560" height="270" rx="8" fill="#E9EDF4"/>
<path d="M87.4236 171.763C87.4236 162.739 100.225 155.424 116.017 155.424C131.808 155.424 144.61 162.739 144.61 171.763" stroke="black" stroke-width="6.12709" stroke-linecap="round" stroke-linejoin="round"/>
<path d="M116.017 139.085C127.296 139.085 136.44 129.941 136.44 118.661C136.44 107.382 127.296 98.2378 116.017 98.2378C104.737 98.2378 95.593 107.382 95.593 118.661C95.593 129.941 104.737 139.085 116.017 139.085Z" fill="#64FF03" stroke="black" stroke-width="6.12709" stroke-linecap="round" stroke-linejoin="round"/>
<path d="M415.39 171.763C415.39 162.739 428.192 155.424 443.983 155.424C459.775 155.424 472.576 162.739 472.576 171.763" stroke="black" stroke-width="6.12709" stroke-linecap="round" stroke-linejoin="round"/>
<path d="M443.983 139.085C455.263 139.085 464.407 129.941 464.407 118.661C464.407 107.382 455.263 98.2378 443.983 98.2378C432.704 98.2378 423.56 107.382 423.56 118.661C423.56 129.941 432.704 139.085 443.983 139.085Z" stroke="black" stroke-width="6.12709" stroke-linecap="round" stroke-linejoin="round"/>
</svg>
