<svg width="233" height="120" viewBox="0 0 233 120" fill="none" xmlns="http://www.w3.org/2000/svg">
<circle cx="116.5" cy="116.5" r="116.5" fill="black"/>
<path d="M133.57 82.6629C133.549 82.8817 133.658 83.3192 134.259 83.3192H137.141C137.329 83.3192 137.705 83.188 137.705 82.6629V78.4268L139.209 80.4554H140.963L142.467 78.4268V82.6629C142.446 82.8817 142.542 83.3192 143.093 83.3192H146.038C146.205 83.3192 146.539 83.188 146.539 82.6629V72.4008C146.539 72.1821 146.377 71.7445 145.725 71.7445H143.156C143.031 71.7644 142.717 71.8996 142.467 72.2815C142.216 72.6633 140.733 74.9862 140.023 76.1L137.58 72.2815C137.454 72.1025 137.116 71.7445 136.765 71.7445H134.134C133.946 71.7644 133.57 71.9354 133.57 72.4605V82.6629Z" fill="white"/>
<path fill-rule="evenodd" clip-rule="evenodd" d="M149.735 82.484C149.589 82.7624 149.509 83.3192 150.361 83.3192H153.118C153.285 83.2795 153.67 83.1164 153.87 82.7823C154.071 82.4482 154.204 81.9669 154.246 81.768H158.005C158.089 82.0663 158.281 82.6868 158.381 82.7823C158.507 82.9016 158.695 83.3192 159.321 83.3192H161.953C162.308 83.3192 162.93 83.1522 162.579 82.484L158.695 72.2815C158.632 72.1025 158.331 71.7445 157.629 71.7445H154.309C154.121 71.7445 153.695 71.8519 153.494 72.2815C153.294 72.7111 150.904 79.2621 149.735 82.484ZM156.126 75.4437L155.123 78.5462H157.128L156.126 75.4437Z" fill="white"/>
<path fill-rule="evenodd" clip-rule="evenodd" d="M165.775 82.7226C165.754 82.9215 165.862 83.3192 166.464 83.3192H169.534C169.743 83.3192 170.16 83.1999 170.16 82.7226V79.6201H170.787L172.291 82.7226C172.416 82.9215 172.767 83.3192 173.168 83.3192H176.363C176.739 83.2795 177.303 83.0806 176.802 82.4243L174.734 78.9638C175.382 78.6854 176.677 77.6751 176.677 75.8613C176.677 73.5941 175.11 71.7445 172.04 71.7445H166.464C166.234 71.7445 165.775 71.8877 165.775 72.4605V82.7226ZM170.035 74.7277V76.5176H171.602C171.79 76.4778 172.165 76.2432 172.165 75.6227C172.165 75.0022 171.79 74.7675 171.602 74.7277H170.035Z" fill="white"/>
<path d="M118.783 82.7823V72.4008C118.762 72.1821 118.871 71.7445 119.472 71.7445H122.041C122.125 71.7644 122.367 71.8877 122.668 72.2218C122.969 72.5559 124.715 75.3044 125.55 76.6369V72.1622C125.55 72.023 125.638 71.7445 125.988 71.7445H129.184C129.351 71.7445 129.685 71.84 129.685 72.2218V82.7226C129.685 82.9215 129.497 83.3192 128.745 83.3192H126.427C126.323 83.3192 126.026 83.2238 125.675 82.8419C125.324 82.4601 123.608 79.9383 122.793 78.7252V82.7823C122.793 82.9613 122.68 83.3192 122.229 83.3192H119.222C119.076 83.3192 118.783 83.2119 118.783 82.7823Z" fill="white"/>
<path d="M104.999 72.2218C104.999 72.0627 105.112 71.7445 105.563 71.7445H114.272C114.439 71.7445 114.773 71.8638 114.773 72.3412V74.489C114.773 74.6084 114.66 74.847 114.209 74.847H109.134V75.921H113.896C114.063 75.921 114.397 76.0522 114.397 76.5773V78.6058C114.397 78.745 114.284 79.0235 113.833 79.0235H109.134V80.0974H114.397C114.564 80.0974 114.898 80.2167 114.898 80.6941V82.7823C114.898 82.9613 114.761 83.3192 114.209 83.3192H105.5C105.333 83.2994 104.999 83.1403 104.999 82.6629V72.2218Z" fill="white"/>
<path d="M91.2148 72.3412C91.2148 72.1423 91.3652 71.7445 91.9666 71.7445H100.425C100.613 71.7445 100.989 71.8877 100.989 72.4605V74.489C100.968 74.6481 100.776 74.9664 100.174 74.9664H95.35V76.0403H100.174C100.321 76.0403 100.613 76.1477 100.613 76.5773V78.6058C100.613 78.745 100.45 79.0235 99.7986 79.0235H97.9816H95.35V80.0974H100.613C100.78 80.0974 101.114 80.2167 101.114 80.6941V82.7823C101.114 82.9215 100.964 83.1999 100.362 83.1999H91.7787C91.5907 83.1999 91.2148 83.0925 91.2148 82.6629V72.3412Z" fill="white"/>
<path fill-rule="evenodd" clip-rule="evenodd" d="M76.6787 72.2815V82.7226C76.6787 82.8817 76.8291 83.1999 77.4306 83.1999H80.4381C80.6051 83.18 80.9393 83.0329 80.9393 82.6033V79.6201H81.6912L83.1949 82.8419C83.2576 82.9613 83.5332 83.1999 84.1347 83.1999H87.2675C87.539 83.1999 87.9818 83.0448 87.5808 82.4243C87.1798 81.8038 86.077 79.8588 85.5758 78.9638C86.2024 78.6456 87.4555 77.5677 87.4555 75.8016C87.4555 73.5941 86.2024 71.7445 82.443 71.7445H77.3053C77.0964 71.7445 76.6787 71.8519 76.6787 72.2815ZM80.9393 76.5176V74.7277H82.443C82.6519 74.7476 83.0696 74.9544 83.0696 75.6227C83.0696 76.2909 82.6519 76.4977 82.443 76.5176H80.9393Z" fill="white"/>
<path fill-rule="evenodd" clip-rule="evenodd" d="M55 69V86.1831H73.0447V69H55ZM62.0801 76.1596V78.1285V79.7394C62.0801 81.052 63.2078 81.768 64.2103 81.768C65.0123 81.768 65.5888 81.4498 65.7767 81.2907V79.7394H64.2103V77.4722H69.1601V82.3646C67.2053 83.6534 66.7165 84.0352 64.2103 84.0352C59.6992 84.0352 58.5296 81.0918 58.5087 79.6201V76.6966C58.5087 75.921 59.0726 71.9832 64.2103 71.9832C68.3205 71.9832 69.2228 74.6084 69.1601 75.921H65.7767C65.7767 74.68 64.6489 74.3697 64.085 74.3697C62.4309 74.3697 62.0592 75.563 62.0801 76.1596Z" fill="#64FF03"/>
</svg>
