<svg width="161" height="477" viewBox="0 0 161 477" fill="none" xmlns="http://www.w3.org/2000/svg">
<path d="M157.989 477C159.094 477.006 159.994 476.115 160 475.011L160.096 457.011C160.101 455.906 159.211 455.006 158.106 455C157.002 454.994 156.102 455.885 156.096 456.99L156.011 472.989L140.011 472.904C138.906 472.899 138.006 473.789 138 474.894C137.994 475.998 138.885 476.898 139.99 476.904L157.989 477ZM11.0468 308.19L12.4685 309.597L11.0468 308.19ZM11.0468 326.477L12.4685 325.07L11.0468 326.477ZM148.953 168.81L150.375 170.217L148.953 168.81ZM0.578292 3.40668L147.532 151.93L150.375 149.117L3.42171 0.593321L0.578292 3.40668ZM147.532 167.403L9.62506 306.783L12.4685 309.597L150.375 170.217L147.532 167.403ZM9.62505 327.883L156.578 476.407L159.422 473.593L12.4685 325.07L9.62505 327.883ZM9.62506 306.783C3.84214 312.628 3.84213 322.039 9.62505 327.883L12.4685 325.07C8.22766 320.784 8.22767 313.883 12.4685 309.597L9.62506 306.783ZM147.532 151.93C151.772 156.216 151.772 163.117 147.532 167.403L150.375 170.217C156.158 164.372 156.158 154.961 150.375 149.117L147.532 151.93Z" fill="#64FF03"/>
</svg>
